<svg width="1024" height="753" viewBox="0 0 1024 753" fill="none" xmlns="http://www.w3.org/2000/svg">
<g opacity="0.2" filter="url(#filter0_f_11_1061)">
<ellipse cx="511.5" cy="128" rx="670.5" ry="350" fill="#338AF3"/>
</g>
<path d="M32.0349 364C33.5302 364 34.6622 364.63 35.4308 365.891C36.2134 367.138 36.6047 368.953 36.6047 371.336C36.6047 373.719 36.2134 375.541 35.4308 376.802C34.6622 378.063 33.5302 378.693 32.0349 378.693C30.5536 378.693 29.4216 378.063 28.639 376.802C27.8564 375.541 27.4651 373.719 27.4651 371.336C27.4651 368.967 27.8564 367.152 28.639 365.891C29.4216 364.63 30.5536 364 32.0349 364ZM28.9534 371.336C28.9534 373.026 29.1072 374.35 29.4146 375.306L34.0683 366.099C33.5791 365.448 32.9013 365.122 32.0349 365.122C31.0706 365.122 30.316 365.635 29.771 366.66C29.2259 367.672 28.9534 369.23 28.9534 371.336ZM32.0349 377.55C33.0131 377.55 33.7748 377.044 34.3198 376.033C34.8648 375.008 35.1373 373.442 35.1373 371.336C35.1373 369.549 34.9627 368.163 34.6133 367.18L29.9596 376.469C30.4627 377.19 31.1545 377.55 32.0349 377.55Z" fill="url(#paint0_linear_11_1061)" fill-opacity="0.6"/>
<path d="M33.2926 401.135H36.3741V402.236H28.3874V401.135H31.9511V389.455L28.5551 391.471L27.9682 390.536L32.1607 387.959H33.2926V401.135Z" fill="url(#paint1_linear_11_1061)" fill-opacity="0.6"/>
<path d="M32.0349 411.502C33.5302 411.502 34.6622 412.133 35.4308 413.393C36.2134 414.64 36.6047 416.455 36.6047 418.838C36.6047 421.221 36.2134 423.043 35.4308 424.304C34.6622 425.565 33.5302 426.195 32.0349 426.195C30.5536 426.195 29.4216 425.565 28.639 424.304C27.8564 423.043 27.4651 421.221 27.4651 418.838C27.4651 416.469 27.8564 414.654 28.639 413.393C29.4216 412.133 30.5536 411.502 32.0349 411.502ZM28.9534 418.838C28.9534 420.529 29.1072 421.852 29.4146 422.808L34.0683 413.601C33.5791 412.95 32.9013 412.624 32.0349 412.624C31.0706 412.624 30.316 413.137 29.771 414.162C29.2259 415.174 28.9534 416.732 28.9534 418.838ZM32.0349 425.052C33.0131 425.052 33.7748 424.546 34.3198 423.535C34.8648 422.51 35.1373 420.944 35.1373 418.838C35.1373 417.051 34.9627 415.665 34.6133 414.682L29.9596 423.971C30.4627 424.692 31.1545 425.052 32.0349 425.052Z" fill="url(#paint2_linear_11_1061)" fill-opacity="0.6"/>
<path d="M33.2926 448.637H36.3741V449.738H28.3874V448.637H31.9511V436.957L28.5551 438.973L27.9682 438.038L32.1607 435.461H33.2926V448.637Z" fill="url(#paint3_linear_11_1061)" fill-opacity="0.6"/>
<path d="M33.2926 472.388H36.3741V473.489H28.3874V472.388H31.9511V460.708L28.5551 462.724L27.9682 461.789L32.1607 459.212H33.2926V472.388Z" fill="url(#paint4_linear_11_1061)" fill-opacity="0.6"/>
<path d="M32.0349 482.755C33.5302 482.755 34.6622 483.386 35.4308 484.646C36.2134 485.893 36.6047 487.708 36.6047 490.091C36.6047 492.474 36.2134 494.296 35.4308 495.557C34.6622 496.818 33.5302 497.448 32.0349 497.448C30.5536 497.448 29.4216 496.818 28.639 495.557C27.8564 494.296 27.4651 492.474 27.4651 490.091C27.4651 487.722 27.8564 485.907 28.639 484.646C29.4216 483.386 30.5536 482.755 32.0349 482.755ZM28.9534 490.091C28.9534 491.782 29.1072 493.105 29.4146 494.061L34.0683 484.854C33.5791 484.203 32.9013 483.878 32.0349 483.878C31.0706 483.878 30.316 484.39 29.771 485.415C29.2259 486.427 28.9534 487.985 28.9534 490.091ZM32.0349 496.305C33.0131 496.305 33.7748 495.8 34.3198 494.788C34.8648 493.763 35.1373 492.197 35.1373 490.091C35.1373 488.304 34.9627 486.919 34.6133 485.935L29.9596 495.225C30.4627 495.945 31.1545 496.305 32.0349 496.305Z" fill="url(#paint5_linear_11_1061)" fill-opacity="0.6"/>
<path d="M33.2926 519.89H36.3741V520.992H28.3874V519.89H31.9511V508.21L28.5551 510.226L27.9682 509.291L32.1607 506.714H33.2926V519.89Z" fill="url(#paint6_linear_11_1061)" fill-opacity="0.6"/>
<path d="M32.0349 530.257C33.5302 530.257 34.6622 530.888 35.4308 532.149C36.2134 533.396 36.6047 535.211 36.6047 537.594C36.6047 539.977 36.2134 541.798 35.4308 543.059C34.6622 544.32 33.5302 544.95 32.0349 544.95C30.5536 544.95 29.4216 544.32 28.639 543.059C27.8564 541.798 27.4651 539.977 27.4651 537.594C27.4651 535.224 27.8564 533.409 28.639 532.149C29.4216 530.888 30.5536 530.257 32.0349 530.257ZM28.9534 537.594C28.9534 539.284 29.1072 540.607 29.4146 541.563L34.0683 532.356C33.5791 531.705 32.9013 531.38 32.0349 531.38C31.0706 531.38 30.316 531.892 29.771 532.918C29.2259 533.929 28.9534 535.488 28.9534 537.594ZM32.0349 543.807C33.0131 543.807 33.7748 543.302 34.3198 542.29C34.8648 541.265 35.1373 539.699 35.1373 537.594C35.1373 535.806 34.9627 534.421 34.6133 533.437L29.9596 542.727C30.4627 543.447 31.1545 543.807 32.0349 543.807Z" fill="url(#paint7_linear_11_1061)" fill-opacity="0.6"/>
<path d="M32.0349 554.008C33.5302 554.008 34.6622 554.639 35.4308 555.9C36.2134 557.147 36.6047 558.962 36.6047 561.345C36.6047 563.728 36.2134 565.549 35.4308 566.81C34.6622 568.071 33.5302 568.701 32.0349 568.701C30.5536 568.701 29.4216 568.071 28.639 566.81C27.8564 565.549 27.4651 563.728 27.4651 561.345C27.4651 558.975 27.8564 557.16 28.639 555.9C29.4216 554.639 30.5536 554.008 32.0349 554.008ZM28.9534 561.345C28.9534 563.035 29.1072 564.358 29.4146 565.314L34.0683 556.107C33.5791 555.456 32.9013 555.131 32.0349 555.131C31.0706 555.131 30.316 555.643 29.771 556.669C29.2259 557.68 28.9534 559.239 28.9534 561.345ZM32.0349 567.558C33.0131 567.558 33.7748 567.053 34.3198 566.041C34.8648 565.016 35.1373 563.451 35.1373 561.345C35.1373 559.557 34.9627 558.172 34.6133 557.188L29.9596 566.478C30.4627 567.198 31.1545 567.558 32.0349 567.558Z" fill="url(#paint8_linear_11_1061)" fill-opacity="0.6"/>
<path d="M33.2926 591.143H36.3741V592.245H28.3874V591.143H31.9511V579.464L28.5551 581.48L27.9682 580.544L32.1607 577.967H33.2926V591.143Z" fill="url(#paint9_linear_11_1061)" fill-opacity="0.6"/>
<path d="M32.0349 601.511C33.5302 601.511 34.6622 602.141 35.4308 603.402C36.2134 604.649 36.6047 606.464 36.6047 608.847C36.6047 611.23 36.2134 613.052 35.4308 614.312C34.6622 615.573 33.5302 616.204 32.0349 616.204C30.5536 616.204 29.4216 615.573 28.639 614.312C27.8564 613.052 27.4651 611.23 27.4651 608.847C27.4651 606.478 27.8564 604.663 28.639 603.402C29.4216 602.141 30.5536 601.511 32.0349 601.511ZM28.9534 608.847C28.9534 610.537 29.1072 611.86 29.4146 612.816L34.0683 603.61C33.5791 602.958 32.9013 602.633 32.0349 602.633C31.0706 602.633 30.316 603.145 29.771 604.171C29.2259 605.182 28.9534 606.741 28.9534 608.847ZM32.0349 615.061C33.0131 615.061 33.7748 614.555 34.3198 613.543C34.8648 612.518 35.1373 610.953 35.1373 608.847C35.1373 607.059 34.9627 605.674 34.6133 604.69L29.9596 613.98C30.4627 614.7 31.1545 615.061 32.0349 615.061Z" fill="url(#paint10_linear_11_1061)" fill-opacity="0.6"/>
<path d="M33.2926 638.645H36.3741V639.747H28.3874V638.645H31.9511V626.966L28.5551 628.982L27.9682 628.046L32.1607 625.469H33.2926V638.645Z" fill="url(#paint11_linear_11_1061)" fill-opacity="0.6"/>
<path d="M33.2926 662.396H36.3741V663.498H28.3874V662.396H31.9511V650.717L28.5551 652.733L27.9682 651.798L32.1607 649.221H33.2926V662.396Z" fill="url(#paint12_linear_11_1061)" fill-opacity="0.6"/>
<path d="M70.9651 411.502C72.4604 411.502 73.5924 412.133 74.361 413.393C75.1436 414.64 75.5349 416.455 75.5349 418.838C75.5349 421.221 75.1436 423.043 74.361 424.304C73.5924 425.565 72.4604 426.195 70.9651 426.195C69.4838 426.195 68.3518 425.565 67.5692 424.304C66.7866 423.043 66.3953 421.221 66.3953 418.838C66.3953 416.469 66.7866 414.654 67.5692 413.393C68.3518 412.133 69.4838 411.502 70.9651 411.502ZM67.8836 418.838C67.8836 420.529 68.0374 421.852 68.3448 422.808L72.9985 413.601C72.5093 412.95 71.8315 412.624 70.9651 412.624C70.0008 412.624 69.2462 413.137 68.7012 414.162C68.1561 415.174 67.8836 416.732 67.8836 418.838ZM70.9651 425.052C71.9433 425.052 72.705 424.546 73.25 423.535C73.795 422.51 74.0675 420.944 74.0675 418.838C74.0675 417.051 73.8928 415.665 73.5435 414.682L68.8898 423.971C69.3929 424.692 70.0847 425.052 70.9651 425.052Z" fill="url(#paint13_linear_11_1061)" fill-opacity="0.6"/>
<path d="M72.2228 448.637H75.3043V449.738H67.3176V448.637H70.8812V436.957L67.4853 438.973L66.8984 438.038L71.0909 435.461H72.2228V448.637Z" fill="url(#paint14_linear_11_1061)" fill-opacity="0.6"/>
<path d="M70.9651 459.004C72.4604 459.004 73.5924 459.635 74.361 460.895C75.1436 462.142 75.5349 463.957 75.5349 466.34C75.5349 468.723 75.1436 470.545 74.361 471.806C73.5924 473.067 72.4604 473.697 70.9651 473.697C69.4838 473.697 68.3518 473.067 67.5692 471.806C66.7866 470.545 66.3953 468.723 66.3953 466.34C66.3953 463.971 66.7866 462.156 67.5692 460.895C68.3518 459.635 69.4838 459.004 70.9651 459.004ZM67.8836 466.34C67.8836 468.031 68.0374 469.354 68.3448 470.31L72.9985 461.103C72.5093 460.452 71.8315 460.126 70.9651 460.126C70.0008 460.126 69.2462 460.639 68.7012 461.664C68.1561 462.676 67.8836 464.234 67.8836 466.34ZM70.9651 472.554C71.9433 472.554 72.705 472.049 73.25 471.037C73.795 470.012 74.0675 468.446 74.0675 466.34C74.0675 464.553 73.8928 463.168 73.5435 462.184L68.8898 471.474C69.3929 472.194 70.0847 472.554 70.9651 472.554Z" fill="url(#paint15_linear_11_1061)" fill-opacity="0.6"/>
<path d="M70.9651 482.755C72.4604 482.755 73.5924 483.386 74.361 484.646C75.1436 485.893 75.5349 487.708 75.5349 490.091C75.5349 492.474 75.1436 494.296 74.361 495.557C73.5924 496.818 72.4604 497.448 70.9651 497.448C69.4838 497.448 68.3518 496.818 67.5692 495.557C66.7866 494.296 66.3953 492.474 66.3953 490.091C66.3953 487.722 66.7866 485.907 67.5692 484.646C68.3518 483.386 69.4838 482.755 70.9651 482.755ZM67.8836 490.091C67.8836 491.782 68.0374 493.105 68.3448 494.061L72.9985 484.854C72.5093 484.203 71.8315 483.878 70.9651 483.878C70.0008 483.878 69.2462 484.39 68.7012 485.415C68.1561 486.427 67.8836 487.985 67.8836 490.091ZM70.9651 496.305C71.9433 496.305 72.705 495.8 73.25 494.788C73.795 493.763 74.0675 492.197 74.0675 490.091C74.0675 488.304 73.8928 486.919 73.5435 485.935L68.8898 495.225C69.3929 495.945 70.0847 496.305 70.9651 496.305Z" fill="url(#paint16_linear_11_1061)" fill-opacity="0.6"/>
<path d="M72.2228 519.89H75.3043V520.992H67.3176V519.89H70.8812V508.21L67.4853 510.226L66.8984 509.291L71.0909 506.714H72.2228V519.89Z" fill="url(#paint17_linear_11_1061)" fill-opacity="0.6"/>
<path d="M70.9651 530.257C72.4604 530.257 73.5924 530.888 74.361 532.149C75.1436 533.396 75.5349 535.211 75.5349 537.594C75.5349 539.977 75.1436 541.798 74.361 543.059C73.5924 544.32 72.4604 544.95 70.9651 544.95C69.4838 544.95 68.3518 544.32 67.5692 543.059C66.7866 541.798 66.3953 539.977 66.3953 537.594C66.3953 535.224 66.7866 533.409 67.5692 532.149C68.3518 530.888 69.4838 530.257 70.9651 530.257ZM67.8836 537.594C67.8836 539.284 68.0374 540.607 68.3448 541.563L72.9985 532.356C72.5093 531.705 71.8315 531.38 70.9651 531.38C70.0008 531.38 69.2462 531.892 68.7012 532.918C68.1561 533.929 67.8836 535.488 67.8836 537.594ZM70.9651 543.807C71.9433 543.807 72.705 543.302 73.25 542.29C73.795 541.265 74.0675 539.699 74.0675 537.594C74.0675 535.806 73.8928 534.421 73.5435 533.437L68.8898 542.727C69.3929 543.447 70.0847 543.807 70.9651 543.807Z" fill="url(#paint18_linear_11_1061)" fill-opacity="0.6"/>
<path d="M72.2228 567.392H75.3043V568.494H67.3176V567.392H70.8812V555.713L67.4853 557.728L66.8984 556.793L71.0909 554.216H72.2228V567.392Z" fill="url(#paint19_linear_11_1061)" fill-opacity="0.6"/>
<path d="M70.9651 577.76C72.4604 577.76 73.5924 578.39 74.361 579.651C75.1436 580.898 75.5349 582.713 75.5349 585.096C75.5349 587.479 75.1436 589.301 74.361 590.561C73.5924 591.822 72.4604 592.453 70.9651 592.453C69.4838 592.453 68.3518 591.822 67.5692 590.561C66.7866 589.301 66.3953 587.479 66.3953 585.096C66.3953 582.726 66.7866 580.911 67.5692 579.651C68.3518 578.39 69.4838 577.76 70.9651 577.76ZM67.8836 585.096C67.8836 586.786 68.0374 588.109 68.3448 589.065L72.9985 579.859C72.5093 579.207 71.8315 578.882 70.9651 578.882C70.0008 578.882 69.2462 579.394 68.7012 580.42C68.1561 581.431 67.8836 582.99 67.8836 585.096ZM70.9651 591.31C71.9433 591.31 72.705 590.804 73.25 589.792C73.795 588.767 74.0675 587.202 74.0675 585.096C74.0675 583.308 73.8928 581.923 73.5435 580.939L68.8898 590.229C69.3929 590.949 70.0847 591.31 70.9651 591.31Z" fill="url(#paint20_linear_11_1061)" fill-opacity="0.6"/>
<path d="M70.9651 601.511C72.4604 601.511 73.5924 602.141 74.361 603.402C75.1436 604.649 75.5349 606.464 75.5349 608.847C75.5349 611.23 75.1436 613.052 74.361 614.312C73.5924 615.573 72.4604 616.204 70.9651 616.204C69.4838 616.204 68.3518 615.573 67.5692 614.312C66.7866 613.052 66.3953 611.23 66.3953 608.847C66.3953 606.478 66.7866 604.663 67.5692 603.402C68.3518 602.141 69.4838 601.511 70.9651 601.511ZM67.8836 608.847C67.8836 610.537 68.0374 611.86 68.3448 612.816L72.9985 603.61C72.5093 602.958 71.8315 602.633 70.9651 602.633C70.0008 602.633 69.2462 603.145 68.7012 604.171C68.1561 605.182 67.8836 606.741 67.8836 608.847ZM70.9651 615.061C71.9433 615.061 72.705 614.555 73.25 613.543C73.795 612.518 74.0675 610.953 74.0675 608.847C74.0675 607.059 73.8928 605.674 73.5435 604.69L68.8898 613.98C69.3929 614.7 70.0847 615.061 70.9651 615.061Z" fill="url(#paint21_linear_11_1061)" fill-opacity="0.6"/>
<path d="M72.2228 638.645H75.3043V639.747H67.3176V638.645H70.8812V626.966L67.4853 628.982L66.8984 628.046L71.0909 625.469H72.2228V638.645Z" fill="url(#paint22_linear_11_1061)" fill-opacity="0.6"/>
<path d="M70.9651 649.013C72.4604 649.013 73.5924 649.643 74.361 650.904C75.1436 652.151 75.5349 653.966 75.5349 656.349C75.5349 658.732 75.1436 660.554 74.361 661.815C73.5924 663.075 72.4604 663.706 70.9651 663.706C69.4838 663.706 68.3518 663.075 67.5692 661.815C66.7866 660.554 66.3953 658.732 66.3953 656.349C66.3953 653.98 66.7866 652.165 67.5692 650.904C68.3518 649.643 69.4838 649.013 70.9651 649.013ZM67.8836 656.349C67.8836 658.039 68.0374 659.362 68.3448 660.318L72.9985 651.112C72.5093 650.461 71.8315 650.135 70.9651 650.135C70.0008 650.135 69.2462 650.648 68.7012 651.673C68.1561 652.684 67.8836 654.243 67.8836 656.349ZM70.9651 662.563C71.9433 662.563 72.705 662.057 73.25 661.046C73.795 660.02 74.0675 658.455 74.0675 656.349C74.0675 654.562 73.8928 653.176 73.5435 652.192L68.8898 661.482C69.3929 662.202 70.0847 662.563 70.9651 662.563Z" fill="url(#paint23_linear_11_1061)" fill-opacity="0.6"/>
<path d="M72.2228 686.148H75.3043V687.249H67.3176V686.148H70.8812V674.468L67.4853 676.484L66.8984 675.549L71.0909 672.972H72.2228V686.148Z" fill="url(#paint24_linear_11_1061)" fill-opacity="0.6"/>
<path d="M72.2228 709.899H75.3043V711H67.3176V709.899H70.8812V698.219L67.4853 700.235L66.8984 699.3L71.0909 696.723H72.2228V709.899Z" fill="url(#paint25_linear_11_1061)" fill-opacity="0.6"/>
<path d="M12.5698 435.253C14.0651 435.253 15.1971 435.884 15.9657 437.144C16.7483 438.391 17.1396 440.206 17.1396 442.589C17.1396 444.972 16.7483 446.794 15.9657 448.055C15.1971 449.316 14.0651 449.946 12.5698 449.946C11.0885 449.946 9.95649 449.316 9.1739 448.055C8.3913 446.794 8 444.972 8 442.589C8 440.22 8.3913 438.405 9.1739 437.144C9.95649 435.884 11.0885 435.253 12.5698 435.253ZM9.48833 442.589C9.48833 444.28 9.64206 445.603 9.9495 446.559L14.6032 437.352C14.114 436.701 13.4363 436.375 12.5698 436.375C11.6055 436.375 10.8509 436.888 10.3059 437.913C9.76084 438.925 9.48833 440.483 9.48833 442.589ZM12.5698 448.803C13.5481 448.803 14.3097 448.297 14.8547 447.286C15.3997 446.261 15.6722 444.695 15.6722 442.589C15.6722 440.802 15.4976 439.417 15.1482 438.433L10.4945 447.722C10.9976 448.443 11.6894 448.803 12.5698 448.803Z" fill="url(#paint26_linear_11_1061)" fill-opacity="0.6"/>
<path d="M12.5698 459.004C14.0651 459.004 15.1971 459.635 15.9657 460.895C16.7483 462.142 17.1396 463.957 17.1396 466.34C17.1396 468.723 16.7483 470.545 15.9657 471.806C15.1971 473.067 14.0651 473.697 12.5698 473.697C11.0885 473.697 9.95649 473.067 9.1739 471.806C8.3913 470.545 8 468.723 8 466.34C8 463.971 8.3913 462.156 9.1739 460.895C9.95649 459.635 11.0885 459.004 12.5698 459.004ZM9.48833 466.34C9.48833 468.031 9.64206 469.354 9.9495 470.31L14.6032 461.103C14.114 460.452 13.4363 460.126 12.5698 460.126C11.6055 460.126 10.8509 460.639 10.3059 461.664C9.76084 462.676 9.48833 464.234 9.48833 466.34ZM12.5698 472.554C13.5481 472.554 14.3097 472.049 14.8547 471.037C15.3997 470.012 15.6722 468.446 15.6722 466.34C15.6722 464.553 15.4976 463.168 15.1482 462.184L10.4945 471.474C10.9976 472.194 11.6894 472.554 12.5698 472.554Z" fill="url(#paint27_linear_11_1061)" fill-opacity="0.6"/>
<path d="M13.8276 496.139H16.909V497.24H8.92235V496.139H12.486V484.459L9.09005 486.475L8.5031 485.54L12.6956 482.963H13.8276V496.139Z" fill="url(#paint28_linear_11_1061)" fill-opacity="0.6"/>
<path d="M12.5698 506.506C14.0651 506.506 15.1971 507.137 15.9657 508.398C16.7483 509.644 17.1396 511.459 17.1396 513.842C17.1396 516.225 16.7483 518.047 15.9657 519.308C15.1971 520.569 14.0651 521.199 12.5698 521.199C11.0885 521.199 9.95649 520.569 9.1739 519.308C8.3913 518.047 8 516.225 8 513.842C8 511.473 8.3913 509.658 9.1739 508.398C9.95649 507.137 11.0885 506.506 12.5698 506.506ZM9.48833 513.842C9.48833 515.533 9.64206 516.856 9.9495 517.812L14.6032 508.605C14.114 507.954 13.4363 507.629 12.5698 507.629C11.6055 507.629 10.8509 508.141 10.3059 509.166C9.76084 510.178 9.48833 511.737 9.48833 513.842ZM12.5698 520.056C13.5481 520.056 14.3097 519.551 14.8547 518.539C15.3997 517.514 15.6722 515.948 15.6722 513.842C15.6722 512.055 15.4976 510.67 15.1482 509.686L10.4945 518.976C10.9976 519.696 11.6894 520.056 12.5698 520.056Z" fill="url(#paint29_linear_11_1061)" fill-opacity="0.6"/>
<path d="M13.8276 543.641H16.909V544.743H8.92235V543.641H12.486V531.962L9.09005 533.977L8.5031 533.042L12.6956 530.465H13.8276V543.641Z" fill="url(#paint30_linear_11_1061)" fill-opacity="0.6"/>
<path d="M13.8276 567.392H16.909V568.494H8.92235V567.392H12.486V555.713L9.09005 557.728L8.5031 556.793L12.6956 554.216H13.8276V567.392Z" fill="url(#paint31_linear_11_1061)" fill-opacity="0.6"/>
<path d="M52.7577 401.135H55.8392V402.236H47.8525V401.135H51.4162V389.455L48.0202 391.471L47.4333 390.536L51.6258 387.959H52.7577V401.135Z" fill="url(#paint32_linear_11_1061)" fill-opacity="0.6"/>
<path d="M51.5 411.502C52.9953 411.502 54.1273 412.133 54.8959 413.393C55.6785 414.64 56.0698 416.455 56.0698 418.838C56.0698 421.221 55.6785 423.043 54.8959 424.304C54.1273 425.565 52.9953 426.195 51.5 426.195C50.0187 426.195 48.8867 425.565 48.1041 424.304C47.3215 423.043 46.9302 421.221 46.9302 418.838C46.9302 416.469 47.3215 414.654 48.1041 413.393C48.8867 412.133 50.0187 411.502 51.5 411.502ZM48.4185 418.838C48.4185 420.529 48.5723 421.852 48.8797 422.808L53.5334 413.601C53.0442 412.95 52.3664 412.624 51.5 412.624C50.5357 412.624 49.7811 413.137 49.2361 414.162C48.691 415.174 48.4185 416.732 48.4185 418.838ZM51.5 425.052C52.4782 425.052 53.2399 424.546 53.7849 423.535C54.3299 422.51 54.6024 420.944 54.6024 418.838C54.6024 417.051 54.4277 415.665 54.0784 414.682L49.4247 423.971C49.9278 424.692 50.6196 425.052 51.5 425.052Z" fill="url(#paint33_linear_11_1061)" fill-opacity="0.6"/>
<path d="M52.7577 448.637H55.8392V449.738H47.8525V448.637H51.4162V436.957L48.0202 438.973L47.4333 438.038L51.6258 435.461H52.7577V448.637Z" fill="url(#paint34_linear_11_1061)" fill-opacity="0.6"/>
<path d="M52.7577 472.388H55.8392V473.489H47.8525V472.388H51.4162V460.708L48.0202 462.724L47.4333 461.789L51.6258 459.212H52.7577V472.388Z" fill="url(#paint35_linear_11_1061)" fill-opacity="0.6"/>
<path d="M51.5 482.755C52.9953 482.755 54.1273 483.386 54.8959 484.646C55.6785 485.893 56.0698 487.708 56.0698 490.091C56.0698 492.474 55.6785 494.296 54.8959 495.557C54.1273 496.818 52.9953 497.448 51.5 497.448C50.0187 497.448 48.8867 496.818 48.1041 495.557C47.3215 494.296 46.9302 492.474 46.9302 490.091C46.9302 487.722 47.3215 485.907 48.1041 484.646C48.8867 483.386 50.0187 482.755 51.5 482.755ZM48.4185 490.091C48.4185 491.782 48.5723 493.105 48.8797 494.061L53.5334 484.854C53.0442 484.203 52.3664 483.878 51.5 483.878C50.5357 483.878 49.7811 484.39 49.2361 485.415C48.691 486.427 48.4185 487.985 48.4185 490.091ZM51.5 496.305C52.4782 496.305 53.2399 495.8 53.7849 494.788C54.3299 493.763 54.6024 492.197 54.6024 490.091C54.6024 488.304 54.4277 486.919 54.0784 485.935L49.4247 495.225C49.9278 495.945 50.6196 496.305 51.5 496.305Z" fill="url(#paint36_linear_11_1061)" fill-opacity="0.6"/>
<path d="M52.7577 519.89H55.8392V520.992H47.8525V519.89H51.4162V508.21L48.0202 510.226L47.4333 509.291L51.6258 506.714H52.7577V519.89Z" fill="url(#paint37_linear_11_1061)" fill-opacity="0.6"/>
<path d="M52.7577 543.641H55.8392V544.743H47.8525V543.641H51.4162V531.962L48.0202 533.977L47.4333 533.042L51.6258 530.465H52.7577V543.641Z" fill="url(#paint38_linear_11_1061)" fill-opacity="0.6"/>
<path d="M51.5 554.008C52.9953 554.008 54.1273 554.639 54.8959 555.9C55.6785 557.147 56.0698 558.962 56.0698 561.345C56.0698 563.728 55.6785 565.549 54.8959 566.81C54.1273 568.071 52.9953 568.701 51.5 568.701C50.0187 568.701 48.8867 568.071 48.1041 566.81C47.3215 565.549 46.9302 563.728 46.9302 561.345C46.9302 558.975 47.3215 557.16 48.1041 555.9C48.8867 554.639 50.0187 554.008 51.5 554.008ZM48.4185 561.345C48.4185 563.035 48.5723 564.358 48.8797 565.314L53.5334 556.107C53.0442 555.456 52.3664 555.131 51.5 555.131C50.5357 555.131 49.7811 555.643 49.2361 556.669C48.691 557.68 48.4185 559.239 48.4185 561.345ZM51.5 567.558C52.4782 567.558 53.2399 567.053 53.7849 566.041C54.3299 565.016 54.6024 563.451 54.6024 561.345C54.6024 559.557 54.4277 558.172 54.0784 557.188L49.4247 566.478C49.9278 567.198 50.6196 567.558 51.5 567.558Z" fill="url(#paint39_linear_11_1061)" fill-opacity="0.6"/>
<path d="M52.7577 591.143H55.8392V592.245H47.8525V591.143H51.4162V579.464L48.0202 581.48L47.4333 580.544L51.6258 577.967H52.7577V591.143Z" fill="url(#paint40_linear_11_1061)" fill-opacity="0.6"/>
<path d="M51.5 601.511C52.9953 601.511 54.1273 602.141 54.8959 603.402C55.6785 604.649 56.0698 606.464 56.0698 608.847C56.0698 611.23 55.6785 613.052 54.8959 614.312C54.1273 615.573 52.9953 616.204 51.5 616.204C50.0187 616.204 48.8867 615.573 48.1041 614.312C47.3215 613.052 46.9302 611.23 46.9302 608.847C46.9302 606.478 47.3215 604.663 48.1041 603.402C48.8867 602.141 50.0187 601.511 51.5 601.511ZM48.4185 608.847C48.4185 610.537 48.5723 611.86 48.8797 612.816L53.5334 603.61C53.0442 602.958 52.3664 602.633 51.5 602.633C50.5357 602.633 49.7811 603.145 49.2361 604.171C48.691 605.182 48.4185 606.741 48.4185 608.847ZM51.5 615.061C52.4782 615.061 53.2399 614.555 53.7849 613.543C54.3299 612.518 54.6024 610.953 54.6024 608.847C54.6024 607.059 54.4277 605.674 54.0784 604.69L49.4247 613.98C49.9278 614.7 50.6196 615.061 51.5 615.061Z" fill="url(#paint41_linear_11_1061)" fill-opacity="0.6"/>
<path d="M90.4302 387.751C91.9255 387.751 93.0575 388.381 93.8261 389.642C94.6087 390.889 95 392.704 95 395.087C95 397.47 94.6087 399.292 93.8261 400.553C93.0575 401.814 91.9255 402.444 90.4302 402.444C88.9489 402.444 87.8169 401.814 87.0343 400.553C86.2517 399.292 85.8604 397.47 85.8604 395.087C85.8604 392.718 86.2517 390.903 87.0343 389.642C87.8169 388.381 88.9489 387.751 90.4302 387.751ZM87.3487 395.087C87.3487 396.777 87.5024 398.101 87.8099 399.057L92.4636 389.85C91.9744 389.199 91.2966 388.873 90.4302 388.873C89.4659 388.873 88.7113 389.386 88.1663 390.411C87.6212 391.423 87.3487 392.981 87.3487 395.087ZM90.4302 401.301C91.4084 401.301 92.1701 400.795 92.7151 399.784C93.2601 398.759 93.5326 397.193 93.5326 395.087C93.5326 393.3 93.3579 391.914 93.0086 390.931L88.3549 400.22C88.858 400.941 89.5498 401.301 90.4302 401.301Z" fill="url(#paint42_linear_11_1061)" fill-opacity="0.6"/>
<path d="M91.6879 424.886H94.7694V425.987H86.7827V424.886H90.3463V413.206L86.9504 415.222L86.3635 414.287L90.556 411.71H91.6879V424.886Z" fill="url(#paint43_linear_11_1061)" fill-opacity="0.6"/>
<path d="M91.6879 448.637H94.7694V449.738H86.7827V448.637H90.3463V436.957L86.9504 438.973L86.3635 438.038L90.556 435.461H91.6879V448.637Z" fill="url(#paint44_linear_11_1061)" fill-opacity="0.6"/>
<path d="M90.4302 459.004C91.9255 459.004 93.0575 459.635 93.8261 460.895C94.6087 462.142 95 463.957 95 466.34C95 468.723 94.6087 470.545 93.8261 471.806C93.0575 473.067 91.9255 473.697 90.4302 473.697C88.9489 473.697 87.8169 473.067 87.0343 471.806C86.2517 470.545 85.8604 468.723 85.8604 466.34C85.8604 463.971 86.2517 462.156 87.0343 460.895C87.8169 459.635 88.9489 459.004 90.4302 459.004ZM87.3487 466.34C87.3487 468.031 87.5024 469.354 87.8099 470.31L92.4636 461.103C91.9744 460.452 91.2966 460.126 90.4302 460.126C89.4659 460.126 88.7113 460.639 88.1663 461.664C87.6212 462.676 87.3487 464.234 87.3487 466.34ZM90.4302 472.554C91.4084 472.554 92.1701 472.049 92.7151 471.037C93.2601 470.012 93.5326 468.446 93.5326 466.34C93.5326 464.553 93.3579 463.168 93.0086 462.184L88.3549 471.474C88.858 472.194 89.5498 472.554 90.4302 472.554Z" fill="url(#paint45_linear_11_1061)" fill-opacity="0.6"/>
<path d="M90.4302 482.755C91.9255 482.755 93.0575 483.386 93.8261 484.646C94.6087 485.893 95 487.708 95 490.091C95 492.474 94.6087 494.296 93.8261 495.557C93.0575 496.818 91.9255 497.448 90.4302 497.448C88.9489 497.448 87.8169 496.818 87.0343 495.557C86.2517 494.296 85.8604 492.474 85.8604 490.091C85.8604 487.722 86.2517 485.907 87.0343 484.646C87.8169 483.386 88.9489 482.755 90.4302 482.755ZM87.3487 490.091C87.3487 491.782 87.5024 493.105 87.8099 494.061L92.4636 484.854C91.9744 484.203 91.2966 483.878 90.4302 483.878C89.4659 483.878 88.7113 484.39 88.1663 485.415C87.6212 486.427 87.3487 487.985 87.3487 490.091ZM90.4302 496.305C91.4084 496.305 92.1701 495.8 92.7151 494.788C93.2601 493.763 93.5326 492.197 93.5326 490.091C93.5326 488.304 93.3579 486.919 93.0086 485.935L88.3549 495.225C88.858 495.945 89.5498 496.305 90.4302 496.305Z" fill="url(#paint46_linear_11_1061)" fill-opacity="0.6"/>
<g opacity="0.6">
<path d="M918.93 64C920.356 64 921.436 64.605 922.17 65.8149C922.916 67.0115 923.29 68.7532 923.29 71.0401C923.29 73.327 922.916 75.0754 922.17 76.2853C921.436 77.4952 920.356 78.1002 918.93 78.1002C917.517 78.1002 916.437 77.4952 915.69 76.2853C914.943 75.0754 914.57 73.327 914.57 71.0401C914.57 68.7665 914.943 67.0248 915.69 65.8149C916.437 64.605 917.517 64 918.93 64ZM915.99 71.0401C915.99 72.6622 916.137 73.932 916.43 74.8494L920.87 66.0143C920.403 65.3894 919.756 65.077 918.93 65.077C918.01 65.077 917.29 65.5689 916.77 66.5528C916.25 67.5234 915.99 69.0192 915.99 71.0401ZM918.93 77.0033C919.863 77.0033 920.59 76.518 921.11 75.5474C921.63 74.5635 921.89 73.0611 921.89 71.0401C921.89 69.325 921.723 67.9954 921.39 67.0514L916.95 75.9662C917.43 76.6576 918.09 77.0033 918.93 77.0033Z" fill="url(#paint47_linear_11_1061)"/>
<path d="M920.13 99.6365H923.07V100.694H915.45V99.6365H918.85V88.4282L915.61 90.3627L915.05 89.4653L919.05 86.9922H920.13V99.6365Z" fill="url(#paint48_linear_11_1061)"/>
<path d="M918.93 109.586C920.356 109.586 921.436 110.191 922.17 111.4C922.916 112.597 923.29 114.339 923.29 116.626C923.29 118.913 922.916 120.661 922.17 121.871C921.436 123.081 920.356 123.686 918.93 123.686C917.517 123.686 916.437 123.081 915.69 121.871C914.943 120.661 914.57 118.913 914.57 116.626C914.57 114.352 914.943 112.61 915.69 111.4C916.437 110.191 917.517 109.586 918.93 109.586ZM915.99 116.626C915.99 118.248 916.137 119.518 916.43 120.435L920.87 111.6C920.403 110.975 919.756 110.663 918.93 110.663C918.01 110.663 917.29 111.155 916.77 112.138C916.25 113.109 915.99 114.605 915.99 116.626ZM918.93 122.589C919.863 122.589 920.59 122.104 921.11 121.133C921.63 120.149 921.89 118.647 921.89 116.626C921.89 114.911 921.723 113.581 921.39 112.637L916.95 121.552C917.43 122.243 918.09 122.589 918.93 122.589Z" fill="url(#paint49_linear_11_1061)"/>
<path d="M920.13 145.222H923.07V146.279H915.45V145.222H918.85V134.014L915.61 135.948L915.05 135.051L919.05 132.578H920.13V145.222Z" fill="url(#paint50_linear_11_1061)"/>
<path d="M920.13 168.015H923.07V169.072H915.45V168.015H918.85V156.807L915.61 158.741L915.05 157.844L919.05 155.371H920.13V168.015Z" fill="url(#paint51_linear_11_1061)"/>
<path d="M918.93 177.964C920.356 177.964 921.436 178.569 922.17 179.779C922.916 180.976 923.29 182.717 923.29 185.004C923.29 187.291 922.916 189.039 922.17 190.249C921.436 191.459 920.356 192.064 918.93 192.064C917.517 192.064 916.437 191.459 915.69 190.249C914.943 189.039 914.57 187.291 914.57 185.004C914.57 182.731 914.943 180.989 915.69 179.779C916.437 178.569 917.517 177.964 918.93 177.964ZM915.99 185.004C915.99 186.626 916.137 187.896 916.43 188.813L920.87 179.978C920.403 179.353 919.756 179.041 918.93 179.041C918.01 179.041 917.29 179.533 916.77 180.517C916.25 181.487 915.99 182.983 915.99 185.004ZM918.93 190.967C919.863 190.967 920.59 190.482 921.11 189.511C921.63 188.528 921.89 187.025 921.89 185.004C921.89 183.289 921.723 181.959 921.39 181.015L916.95 189.93C917.43 190.622 918.09 190.967 918.93 190.967Z" fill="url(#paint52_linear_11_1061)"/>
<path d="M920.13 213.601H923.07V214.658H915.45V213.601H918.85V202.392L915.61 204.327L915.05 203.429L919.05 200.956H920.13V213.601Z" fill="url(#paint53_linear_11_1061)"/>
<path d="M918.93 223.55C920.356 223.55 921.436 224.155 922.17 225.365C922.916 226.561 923.29 228.303 923.29 230.59C923.29 232.877 922.916 234.625 922.17 235.835C921.436 237.045 920.356 237.65 918.93 237.65C917.517 237.65 916.437 237.045 915.69 235.835C914.943 234.625 914.57 232.877 914.57 230.59C914.57 228.316 914.943 226.574 915.69 225.365C916.437 224.155 917.517 223.55 918.93 223.55ZM915.99 230.59C915.99 232.212 916.137 233.482 916.43 234.399L920.87 225.564C920.403 224.939 919.756 224.627 918.93 224.627C918.01 224.627 917.29 225.119 916.77 226.102C916.25 227.073 915.99 228.569 915.99 230.59ZM918.93 236.553C919.863 236.553 920.59 236.068 921.11 235.097C921.63 234.113 921.89 232.611 921.89 230.59C921.89 228.875 921.723 227.545 921.39 226.601L916.95 235.516C917.43 236.207 918.09 236.553 918.93 236.553Z" fill="url(#paint54_linear_11_1061)"/>
<path d="M918.93 246.342C920.356 246.342 921.436 246.947 922.17 248.157C922.916 249.354 923.29 251.096 923.29 253.383C923.29 255.669 922.916 257.418 922.17 258.628C921.436 259.838 920.356 260.443 918.93 260.443C917.517 260.443 916.437 259.838 915.69 258.628C914.943 257.418 914.57 255.669 914.57 253.383C914.57 251.109 914.943 249.367 915.69 248.157C916.437 246.947 917.517 246.342 918.93 246.342ZM915.99 253.383C915.99 255.005 916.137 256.274 916.43 257.192L920.87 248.357C920.403 247.732 919.756 247.419 918.93 247.419C918.01 247.419 917.29 247.911 916.77 248.895C916.25 249.866 915.99 251.362 915.99 253.383ZM918.93 259.346C919.863 259.346 920.59 258.86 921.11 257.89C921.63 256.906 921.89 255.404 921.89 253.383C921.89 251.667 921.723 250.338 921.39 249.394L916.95 258.309C917.43 259 918.09 259.346 918.93 259.346Z" fill="url(#paint55_linear_11_1061)"/>
<path d="M920.13 281.979H923.07V283.036H915.45V281.979H918.85V270.771L915.61 272.705L915.05 271.808L919.05 269.335H920.13V281.979Z" fill="url(#paint56_linear_11_1061)"/>
<path d="M918.93 291.928C920.356 291.928 921.436 292.533 922.17 293.743C922.916 294.94 923.29 296.681 923.29 298.968C923.29 301.255 922.916 303.003 922.17 304.213C921.436 305.423 920.356 306.028 918.93 306.028C917.517 306.028 916.437 305.423 915.69 304.213C914.943 303.003 914.57 301.255 914.57 298.968C914.57 296.695 914.943 294.953 915.69 293.743C916.437 292.533 917.517 291.928 918.93 291.928ZM915.99 298.968C915.99 300.59 916.137 301.86 916.43 302.777L920.87 293.942C920.403 293.317 919.756 293.005 918.93 293.005C918.01 293.005 917.29 293.497 916.77 294.481C916.25 295.451 915.99 296.947 915.99 298.968ZM918.93 304.931C919.863 304.931 920.59 304.446 921.11 303.475C921.63 302.492 921.89 300.989 921.89 298.968C921.89 297.253 921.723 295.923 921.39 294.979L916.95 303.894C917.43 304.586 918.09 304.931 918.93 304.931Z" fill="url(#paint57_linear_11_1061)"/>
<path d="M920.13 327.565H923.07V328.622H915.45V327.565H918.85V316.356L915.61 318.291L915.05 317.393L919.05 314.92H920.13V327.565Z" fill="url(#paint58_linear_11_1061)"/>
<path d="M920.13 350.357H923.07V351.414H915.45V350.357H918.85V339.149L915.61 341.084L915.05 340.186L919.05 337.713H920.13V350.357Z" fill="url(#paint59_linear_11_1061)"/>
<path d="M956.07 109.586C957.497 109.586 958.577 110.191 959.31 111.4C960.057 112.597 960.43 114.339 960.43 116.626C960.43 118.913 960.057 120.661 959.31 121.871C958.577 123.081 957.497 123.686 956.07 123.686C954.657 123.686 953.577 123.081 952.83 121.871C952.084 120.661 951.71 118.913 951.71 116.626C951.71 114.352 952.084 112.61 952.83 111.4C953.577 110.191 954.657 109.586 956.07 109.586ZM953.13 116.626C953.13 118.248 953.277 119.518 953.57 120.435L958.01 111.6C957.543 110.975 956.897 110.663 956.07 110.663C955.15 110.663 954.43 111.155 953.91 112.138C953.39 113.109 953.13 114.605 953.13 116.626ZM956.07 122.589C957.003 122.589 957.73 122.104 958.25 121.133C958.77 120.149 959.03 118.647 959.03 116.626C959.03 114.911 958.863 113.581 958.53 112.637L954.09 121.552C954.57 122.243 955.23 122.589 956.07 122.589Z" fill="url(#paint60_linear_11_1061)"/>
<path d="M957.27 145.222H960.21V146.279H952.59V145.222H955.99V134.014L952.75 135.948L952.19 135.051L956.19 132.578H957.27V145.222Z" fill="url(#paint61_linear_11_1061)"/>
<path d="M956.07 155.171C957.497 155.171 958.577 155.776 959.31 156.986C960.057 158.183 960.43 159.924 960.43 162.211C960.43 164.498 960.057 166.247 959.31 167.457C958.577 168.666 957.497 169.271 956.07 169.271C954.657 169.271 953.577 168.666 952.83 167.457C952.084 166.247 951.71 164.498 951.71 162.211C951.71 159.938 952.084 158.196 952.83 156.986C953.577 155.776 954.657 155.171 956.07 155.171ZM953.13 162.211C953.13 163.833 953.277 165.103 953.57 166.021L958.01 157.186C957.543 156.561 956.897 156.248 956.07 156.248C955.15 156.248 954.43 156.74 953.91 157.724C953.39 158.695 953.13 160.19 953.13 162.211ZM956.07 168.174C957.003 168.174 957.73 167.689 958.25 166.719C958.77 165.735 959.03 164.232 959.03 162.211C959.03 160.496 958.863 159.167 958.53 158.223L954.09 167.137C954.57 167.829 955.23 168.174 956.07 168.174Z" fill="url(#paint62_linear_11_1061)"/>
<path d="M956.07 177.964C957.497 177.964 958.577 178.569 959.31 179.779C960.057 180.976 960.43 182.717 960.43 185.004C960.43 187.291 960.057 189.039 959.31 190.249C958.577 191.459 957.497 192.064 956.07 192.064C954.657 192.064 953.577 191.459 952.83 190.249C952.084 189.039 951.71 187.291 951.71 185.004C951.71 182.731 952.084 180.989 952.83 179.779C953.577 178.569 954.657 177.964 956.07 177.964ZM953.13 185.004C953.13 186.626 953.277 187.896 953.57 188.813L958.01 179.978C957.543 179.353 956.897 179.041 956.07 179.041C955.15 179.041 954.43 179.533 953.91 180.517C953.39 181.487 953.13 182.983 953.13 185.004ZM956.07 190.967C957.003 190.967 957.73 190.482 958.25 189.511C958.77 188.528 959.03 187.025 959.03 185.004C959.03 183.289 958.863 181.959 958.53 181.015L954.09 189.93C954.57 190.622 955.23 190.967 956.07 190.967Z" fill="url(#paint63_linear_11_1061)"/>
<path d="M957.27 213.601H960.21V214.658H952.59V213.601H955.99V202.392L952.75 204.327L952.19 203.429L956.19 200.956H957.27V213.601Z" fill="url(#paint64_linear_11_1061)"/>
<path d="M956.07 223.55C957.497 223.55 958.577 224.155 959.31 225.365C960.057 226.561 960.43 228.303 960.43 230.59C960.43 232.877 960.057 234.625 959.31 235.835C958.577 237.045 957.497 237.65 956.07 237.65C954.657 237.65 953.577 237.045 952.83 235.835C952.084 234.625 951.71 232.877 951.71 230.59C951.71 228.316 952.084 226.574 952.83 225.365C953.577 224.155 954.657 223.55 956.07 223.55ZM953.13 230.59C953.13 232.212 953.277 233.482 953.57 234.399L958.01 225.564C957.543 224.939 956.897 224.627 956.07 224.627C955.15 224.627 954.43 225.119 953.91 226.102C953.39 227.073 953.13 228.569 953.13 230.59ZM956.07 236.553C957.003 236.553 957.73 236.068 958.25 235.097C958.77 234.113 959.03 232.611 959.03 230.59C959.03 228.875 958.863 227.545 958.53 226.601L954.09 235.516C954.57 236.207 955.23 236.553 956.07 236.553Z" fill="url(#paint65_linear_11_1061)"/>
<path d="M957.27 259.186H960.21V260.243H952.59V259.186H955.99V247.978L952.75 249.912L952.19 249.015L956.19 246.542H957.27V259.186Z" fill="url(#paint66_linear_11_1061)"/>
<path d="M956.07 269.135C957.497 269.135 958.577 269.74 959.31 270.95C960.057 272.147 960.43 273.888 960.43 276.175C960.43 278.462 960.057 280.211 959.31 281.421C958.577 282.63 957.497 283.235 956.07 283.235C954.657 283.235 953.577 282.63 952.83 281.421C952.084 280.211 951.71 278.462 951.71 276.175C951.71 273.902 952.084 272.16 952.83 270.95C953.577 269.74 954.657 269.135 956.07 269.135ZM953.13 276.175C953.13 277.797 953.277 279.067 953.57 279.985L958.01 271.15C957.543 270.525 956.897 270.212 956.07 270.212C955.15 270.212 954.43 270.704 953.91 271.688C953.39 272.659 953.13 274.154 953.13 276.175ZM956.07 282.139C957.003 282.139 957.73 281.653 958.25 280.683C958.77 279.699 959.03 278.196 959.03 276.175C959.03 274.46 958.863 273.131 958.53 272.187L954.09 281.101C954.57 281.793 955.23 282.139 956.07 282.139Z" fill="url(#paint67_linear_11_1061)"/>
<path d="M956.07 291.928C957.497 291.928 958.577 292.533 959.31 293.743C960.057 294.94 960.43 296.681 960.43 298.968C960.43 301.255 960.057 303.003 959.31 304.213C958.577 305.423 957.497 306.028 956.07 306.028C954.657 306.028 953.577 305.423 952.83 304.213C952.084 303.003 951.71 301.255 951.71 298.968C951.71 296.695 952.084 294.953 952.83 293.743C953.577 292.533 954.657 291.928 956.07 291.928ZM953.13 298.968C953.13 300.59 953.277 301.86 953.57 302.777L958.01 293.942C957.543 293.317 956.897 293.005 956.07 293.005C955.15 293.005 954.43 293.497 953.91 294.481C953.39 295.451 953.13 296.947 953.13 298.968ZM956.07 304.931C957.003 304.931 957.73 304.446 958.25 303.475C958.77 302.492 959.03 300.989 959.03 298.968C959.03 297.253 958.863 295.923 958.53 294.979L954.09 303.894C954.57 304.586 955.23 304.931 956.07 304.931Z" fill="url(#paint68_linear_11_1061)"/>
<path d="M957.27 327.565H960.21V328.622H952.59V327.565H955.99V316.356L952.75 318.291L952.19 317.393L956.19 314.92H957.27V327.565Z" fill="url(#paint69_linear_11_1061)"/>
<path d="M956.07 337.514C957.497 337.514 958.577 338.119 959.31 339.329C960.057 340.525 960.43 342.267 960.43 344.554C960.43 346.841 960.057 348.589 959.31 349.799C958.577 351.009 957.497 351.614 956.07 351.614C954.657 351.614 953.577 351.009 952.83 349.799C952.084 348.589 951.71 346.841 951.71 344.554C951.71 342.28 952.084 340.538 952.83 339.329C953.577 338.119 954.657 337.514 956.07 337.514ZM953.13 344.554C953.13 346.176 953.277 347.446 953.57 348.363L958.01 339.528C957.543 338.903 956.897 338.591 956.07 338.591C955.15 338.591 954.43 339.083 953.91 340.066C953.39 341.037 953.13 342.533 953.13 344.554ZM956.07 350.517C957.003 350.517 957.73 350.032 958.25 349.061C958.77 348.077 959.03 346.575 959.03 344.554C959.03 342.839 958.863 341.509 958.53 340.565L954.09 349.48C954.57 350.171 955.23 350.517 956.07 350.517Z" fill="url(#paint70_linear_11_1061)"/>
<path d="M957.27 373.15H960.21V374.207H952.59V373.15H955.99V361.942L952.75 363.876L952.19 362.979L956.19 360.506H957.27V373.15Z" fill="url(#paint71_linear_11_1061)"/>
<path d="M957.27 395.943H960.21V397H952.59V395.943H955.99V384.735L952.75 386.669L952.19 385.772L956.19 383.299H957.27V395.943Z" fill="url(#paint72_linear_11_1061)"/>
<path d="M900.36 132.378C901.786 132.378 902.866 132.983 903.599 134.193C904.346 135.39 904.719 137.132 904.719 139.419C904.719 141.705 904.346 143.454 903.599 144.664C902.866 145.874 901.786 146.479 900.36 146.479C898.946 146.479 897.867 145.874 897.12 144.664C896.373 143.454 896 141.705 896 139.419C896 137.145 896.373 135.403 897.12 134.193C897.867 132.983 898.946 132.378 900.36 132.378ZM897.42 139.419C897.42 141.041 897.567 142.31 897.86 143.228L902.3 134.393C901.833 133.768 901.186 133.455 900.36 133.455C899.44 133.455 898.72 133.947 898.2 134.931C897.68 135.902 897.42 137.398 897.42 139.419ZM900.36 145.382C901.293 145.382 902.02 144.896 902.54 143.926C903.06 142.942 903.319 141.44 903.319 139.419C903.319 137.703 903.153 136.374 902.82 135.43L898.38 144.345C898.86 145.036 899.52 145.382 900.36 145.382Z" fill="url(#paint73_linear_11_1061)"/>
<path d="M900.36 155.171C901.786 155.171 902.866 155.776 903.599 156.986C904.346 158.183 904.719 159.924 904.719 162.211C904.719 164.498 904.346 166.247 903.599 167.457C902.866 168.666 901.786 169.271 900.36 169.271C898.946 169.271 897.867 168.666 897.12 167.457C896.373 166.247 896 164.498 896 162.211C896 159.938 896.373 158.196 897.12 156.986C897.867 155.776 898.946 155.171 900.36 155.171ZM897.42 162.211C897.42 163.833 897.567 165.103 897.86 166.021L902.3 157.186C901.833 156.561 901.186 156.248 900.36 156.248C899.44 156.248 898.72 156.74 898.2 157.724C897.68 158.695 897.42 160.19 897.42 162.211ZM900.36 168.174C901.293 168.174 902.02 167.689 902.54 166.719C903.06 165.735 903.319 164.232 903.319 162.211C903.319 160.496 903.153 159.167 902.82 158.223L898.38 167.137C898.86 167.829 899.52 168.174 900.36 168.174Z" fill="url(#paint74_linear_11_1061)"/>
<path d="M901.56 190.808H904.499V191.865H896.88V190.808H900.28V179.599L897.04 181.534L896.48 180.636L900.48 178.163H901.56V190.808Z" fill="url(#paint75_linear_11_1061)"/>
<path d="M900.36 200.757C901.786 200.757 902.866 201.362 903.599 202.572C904.346 203.768 904.719 205.51 904.719 207.797C904.719 210.084 904.346 211.832 903.599 213.042C902.866 214.252 901.786 214.857 900.36 214.857C898.946 214.857 897.867 214.252 897.12 213.042C896.373 211.832 896 210.084 896 207.797C896 205.523 896.373 203.782 897.12 202.572C897.867 201.362 898.946 200.757 900.36 200.757ZM897.42 207.797C897.42 209.419 897.567 210.689 897.86 211.606L902.3 202.771C901.833 202.146 901.186 201.834 900.36 201.834C899.44 201.834 898.72 202.326 898.2 203.31C897.68 204.28 897.42 205.776 897.42 207.797ZM900.36 213.76C901.293 213.76 902.02 213.275 902.54 212.304C903.06 211.32 903.319 209.818 903.319 207.797C903.319 206.082 903.153 204.752 902.82 203.808L898.38 212.723C898.86 213.414 899.52 213.76 900.36 213.76Z" fill="url(#paint76_linear_11_1061)"/>
<path d="M901.56 236.393H904.499V237.45H896.88V236.393H900.28V225.185L897.04 227.12L896.48 226.222L900.48 223.749H901.56V236.393Z" fill="url(#paint77_linear_11_1061)"/>
<path d="M901.56 259.186H904.499V260.243H896.88V259.186H900.28V247.978L897.04 249.912L896.48 249.015L900.48 246.542H901.56V259.186Z" fill="url(#paint78_linear_11_1061)"/>
<path d="M938.7 99.6365H941.64V100.694H934.02V99.6365H937.42V88.4282L934.18 90.3627L933.62 89.4653L937.62 86.9922H938.7V99.6365Z" fill="url(#paint79_linear_11_1061)"/>
<path d="M937.5 109.586C938.927 109.586 940.006 110.191 940.74 111.4C941.486 112.597 941.86 114.339 941.86 116.626C941.86 118.913 941.486 120.661 940.74 121.871C940.006 123.081 938.927 123.686 937.5 123.686C936.087 123.686 935.007 123.081 934.26 121.871C933.514 120.661 933.14 118.913 933.14 116.626C933.14 114.352 933.514 112.61 934.26 111.4C935.007 110.191 936.087 109.586 937.5 109.586ZM934.56 116.626C934.56 118.248 934.707 119.518 935 120.435L939.44 111.6C938.973 110.975 938.327 110.663 937.5 110.663C936.58 110.663 935.86 111.155 935.34 112.138C934.82 113.109 934.56 114.605 934.56 116.626ZM937.5 122.589C938.433 122.589 939.16 122.104 939.68 121.133C940.2 120.149 940.46 118.647 940.46 116.626C940.46 114.911 940.293 113.581 939.96 112.637L935.52 121.552C936 122.243 936.66 122.589 937.5 122.589Z" fill="url(#paint80_linear_11_1061)"/>
<path d="M938.7 145.222H941.64V146.279H934.02V145.222H937.42V134.014L934.18 135.948L933.62 135.051L937.62 132.578H938.7V145.222Z" fill="url(#paint81_linear_11_1061)"/>
<path d="M938.7 168.015H941.64V169.072H934.02V168.015H937.42V156.807L934.18 158.741L933.62 157.844L937.62 155.371H938.7V168.015Z" fill="url(#paint82_linear_11_1061)"/>
<path d="M937.5 177.964C938.927 177.964 940.006 178.569 940.74 179.779C941.486 180.976 941.86 182.717 941.86 185.004C941.86 187.291 941.486 189.039 940.74 190.249C940.006 191.459 938.927 192.064 937.5 192.064C936.087 192.064 935.007 191.459 934.26 190.249C933.514 189.039 933.14 187.291 933.14 185.004C933.14 182.731 933.514 180.989 934.26 179.779C935.007 178.569 936.087 177.964 937.5 177.964ZM934.56 185.004C934.56 186.626 934.707 187.896 935 188.813L939.44 179.978C938.973 179.353 938.327 179.041 937.5 179.041C936.58 179.041 935.86 179.533 935.34 180.517C934.82 181.487 934.56 182.983 934.56 185.004ZM937.5 190.967C938.433 190.967 939.16 190.482 939.68 189.511C940.2 188.528 940.46 187.025 940.46 185.004C940.46 183.289 940.293 181.959 939.96 181.015L935.52 189.93C936 190.622 936.66 190.967 937.5 190.967Z" fill="url(#paint83_linear_11_1061)"/>
<path d="M938.7 213.601H941.64V214.658H934.02V213.601H937.42V202.392L934.18 204.327L933.62 203.429L937.62 200.956H938.7V213.601Z" fill="url(#paint84_linear_11_1061)"/>
<path d="M938.7 236.393H941.64V237.45H934.02V236.393H937.42V225.185L934.18 227.12L933.62 226.222L937.62 223.749H938.7V236.393Z" fill="url(#paint85_linear_11_1061)"/>
<path d="M937.5 246.342C938.927 246.342 940.006 246.947 940.74 248.157C941.486 249.354 941.86 251.096 941.86 253.383C941.86 255.669 941.486 257.418 940.74 258.628C940.006 259.838 938.927 260.443 937.5 260.443C936.087 260.443 935.007 259.838 934.26 258.628C933.514 257.418 933.14 255.669 933.14 253.383C933.14 251.109 933.514 249.367 934.26 248.157C935.007 246.947 936.087 246.342 937.5 246.342ZM934.56 253.383C934.56 255.005 934.707 256.274 935 257.192L939.44 248.357C938.973 247.732 938.327 247.419 937.5 247.419C936.58 247.419 935.86 247.911 935.34 248.895C934.82 249.866 934.56 251.362 934.56 253.383ZM937.5 259.346C938.433 259.346 939.16 258.86 939.68 257.89C940.2 256.906 940.46 255.404 940.46 253.383C940.46 251.667 940.293 250.338 939.96 249.394L935.52 258.309C936 259 936.66 259.346 937.5 259.346Z" fill="url(#paint86_linear_11_1061)"/>
<path d="M938.7 281.979H941.64V283.036H934.02V281.979H937.42V270.771L934.18 272.705L933.62 271.808L937.62 269.335H938.7V281.979Z" fill="url(#paint87_linear_11_1061)"/>
<path d="M937.5 291.928C938.927 291.928 940.006 292.533 940.74 293.743C941.486 294.94 941.86 296.681 941.86 298.968C941.86 301.255 941.486 303.003 940.74 304.213C940.006 305.423 938.927 306.028 937.5 306.028C936.087 306.028 935.007 305.423 934.26 304.213C933.514 303.003 933.14 301.255 933.14 298.968C933.14 296.695 933.514 294.953 934.26 293.743C935.007 292.533 936.087 291.928 937.5 291.928ZM934.56 298.968C934.56 300.59 934.707 301.86 935 302.777L939.44 293.942C938.973 293.317 938.327 293.005 937.5 293.005C936.58 293.005 935.86 293.497 935.34 294.481C934.82 295.451 934.56 296.947 934.56 298.968ZM937.5 304.931C938.433 304.931 939.16 304.446 939.68 303.475C940.2 302.492 940.46 300.989 940.46 298.968C940.46 297.253 940.293 295.923 939.96 294.979L935.52 303.894C936 304.586 936.66 304.931 937.5 304.931Z" fill="url(#paint88_linear_11_1061)"/>
<path d="M974.64 86.7928C976.067 86.7928 977.147 87.3978 977.88 88.6077C978.627 89.8043 979 91.5461 979 93.8329C979 96.1198 978.627 97.8682 977.88 99.0781C977.147 100.288 976.067 100.893 974.64 100.893C973.227 100.893 972.147 100.288 971.401 99.0781C970.654 97.8682 970.281 96.1198 970.281 93.8329C970.281 91.5593 970.654 89.8176 971.401 88.6077C972.147 87.3978 973.227 86.7928 974.64 86.7928ZM971.7 93.8329C971.7 95.455 971.847 96.7248 972.14 97.6422L976.58 88.8071C976.114 88.1822 975.467 87.8698 974.64 87.8698C973.72 87.8698 973 88.3617 972.48 89.3456C971.96 90.3162 971.7 91.812 971.7 93.8329ZM974.64 99.7961C975.574 99.7961 976.3 99.3108 976.82 98.3402C977.34 97.3563 977.6 95.8539 977.6 93.8329C977.6 92.1178 977.433 90.7882 977.1 89.8442L972.66 98.759C973.14 99.4504 973.8 99.7961 974.64 99.7961Z" fill="url(#paint89_linear_11_1061)"/>
<path d="M975.84 122.429H978.78V123.486H971.161V122.429H974.56V111.221L971.321 113.156L970.761 112.258L974.76 109.785H975.84V122.429Z" fill="url(#paint90_linear_11_1061)"/>
<path d="M975.84 145.222H978.78V146.279H971.161V145.222H974.56V134.014L971.321 135.948L970.761 135.051L974.76 132.578H975.84V145.222Z" fill="url(#paint91_linear_11_1061)"/>
<path d="M974.64 155.171C976.067 155.171 977.147 155.776 977.88 156.986C978.627 158.183 979 159.924 979 162.211C979 164.498 978.627 166.247 977.88 167.457C977.147 168.666 976.067 169.271 974.64 169.271C973.227 169.271 972.147 168.666 971.401 167.457C970.654 166.247 970.281 164.498 970.281 162.211C970.281 159.938 970.654 158.196 971.401 156.986C972.147 155.776 973.227 155.171 974.64 155.171ZM971.7 162.211C971.7 163.833 971.847 165.103 972.14 166.021L976.58 157.186C976.114 156.561 975.467 156.248 974.64 156.248C973.72 156.248 973 156.74 972.48 157.724C971.96 158.695 971.7 160.19 971.7 162.211ZM974.64 168.174C975.574 168.174 976.3 167.689 976.82 166.719C977.34 165.735 977.6 164.232 977.6 162.211C977.6 160.496 977.433 159.167 977.1 158.223L972.66 167.137C973.14 167.829 973.8 168.174 974.64 168.174Z" fill="url(#paint92_linear_11_1061)"/>
<path d="M974.64 177.964C976.067 177.964 977.147 178.569 977.88 179.779C978.627 180.976 979 182.717 979 185.004C979 187.291 978.627 189.039 977.88 190.249C977.147 191.459 976.067 192.064 974.64 192.064C973.227 192.064 972.147 191.459 971.401 190.249C970.654 189.039 970.281 187.291 970.281 185.004C970.281 182.731 970.654 180.989 971.401 179.779C972.147 178.569 973.227 177.964 974.64 177.964ZM971.7 185.004C971.7 186.626 971.847 187.896 972.14 188.813L976.58 179.978C976.114 179.353 975.467 179.041 974.64 179.041C973.72 179.041 973 179.533 972.48 180.517C971.96 181.487 971.7 182.983 971.7 185.004ZM974.64 190.967C975.574 190.967 976.3 190.482 976.82 189.511C977.34 188.528 977.6 187.025 977.6 185.004C977.6 183.289 977.433 181.959 977.1 181.015L972.66 189.93C973.14 190.622 973.8 190.967 974.64 190.967Z" fill="url(#paint93_linear_11_1061)"/>
</g>
<defs>
<filter id="filter0_f_11_1061" x="-559.19" y="-622.19" width="2141.38" height="1500.38" filterUnits="userSpaceOnUse" color-interpolation-filters="sRGB">
<feFlood flood-opacity="0" result="BackgroundImageFix"/>
<feBlend mode="normal" in="SourceGraphic" in2="BackgroundImageFix" result="shape"/>
<feGaussianBlur stdDeviation="200.095" result="effect1_foregroundBlur_11_1061"/>
</filter>
<linearGradient id="paint0_linear_11_1061" x1="51.5" y1="364" x2="51.5" y2="675.381" gradientUnits="userSpaceOnUse">
<stop stop-color="#F7DD43"/>
<stop offset="1" stop-color="#F7DD43" stop-opacity="0"/>
</linearGradient>
<linearGradient id="paint1_linear_11_1061" x1="51.5" y1="364" x2="51.5" y2="675.381" gradientUnits="userSpaceOnUse">
<stop stop-color="#F7DD43"/>
<stop offset="1" stop-color="#F7DD43" stop-opacity="0"/>
</linearGradient>
<linearGradient id="paint2_linear_11_1061" x1="51.5" y1="364" x2="51.5" y2="675.381" gradientUnits="userSpaceOnUse">
<stop stop-color="#F7DD43"/>
<stop offset="1" stop-color="#F7DD43" stop-opacity="0"/>
</linearGradient>
<linearGradient id="paint3_linear_11_1061" x1="51.5" y1="364" x2="51.5" y2="675.381" gradientUnits="userSpaceOnUse">
<stop stop-color="#F7DD43"/>
<stop offset="1" stop-color="#F7DD43" stop-opacity="0"/>
</linearGradient>
<linearGradient id="paint4_linear_11_1061" x1="51.5" y1="364" x2="51.5" y2="675.381" gradientUnits="userSpaceOnUse">
<stop stop-color="#F7DD43"/>
<stop offset="1" stop-color="#F7DD43" stop-opacity="0"/>
</linearGradient>
<linearGradient id="paint5_linear_11_1061" x1="51.5" y1="364" x2="51.5" y2="675.381" gradientUnits="userSpaceOnUse">
<stop stop-color="#F7DD43"/>
<stop offset="1" stop-color="#F7DD43" stop-opacity="0"/>
</linearGradient>
<linearGradient id="paint6_linear_11_1061" x1="51.5" y1="364" x2="51.5" y2="675.381" gradientUnits="userSpaceOnUse">
<stop stop-color="#F7DD43"/>
<stop offset="1" stop-color="#F7DD43" stop-opacity="0"/>
</linearGradient>
<linearGradient id="paint7_linear_11_1061" x1="51.5" y1="364" x2="51.5" y2="675.381" gradientUnits="userSpaceOnUse">
<stop stop-color="#F7DD43"/>
<stop offset="1" stop-color="#F7DD43" stop-opacity="0"/>
</linearGradient>
<linearGradient id="paint8_linear_11_1061" x1="51.5" y1="364" x2="51.5" y2="675.381" gradientUnits="userSpaceOnUse">
<stop stop-color="#F7DD43"/>
<stop offset="1" stop-color="#F7DD43" stop-opacity="0"/>
</linearGradient>
<linearGradient id="paint9_linear_11_1061" x1="51.5" y1="364" x2="51.5" y2="675.381" gradientUnits="userSpaceOnUse">
<stop stop-color="#F7DD43"/>
<stop offset="1" stop-color="#F7DD43" stop-opacity="0"/>
</linearGradient>
<linearGradient id="paint10_linear_11_1061" x1="51.5" y1="364" x2="51.5" y2="675.381" gradientUnits="userSpaceOnUse">
<stop stop-color="#F7DD43"/>
<stop offset="1" stop-color="#F7DD43" stop-opacity="0"/>
</linearGradient>
<linearGradient id="paint11_linear_11_1061" x1="51.5" y1="364" x2="51.5" y2="675.381" gradientUnits="userSpaceOnUse">
<stop stop-color="#F7DD43"/>
<stop offset="1" stop-color="#F7DD43" stop-opacity="0"/>
</linearGradient>
<linearGradient id="paint12_linear_11_1061" x1="51.5" y1="364" x2="51.5" y2="675.381" gradientUnits="userSpaceOnUse">
<stop stop-color="#F7DD43"/>
<stop offset="1" stop-color="#F7DD43" stop-opacity="0"/>
</linearGradient>
<linearGradient id="paint13_linear_11_1061" x1="51.5" y1="364" x2="51.5" y2="675.381" gradientUnits="userSpaceOnUse">
<stop stop-color="#F7DD43"/>
<stop offset="1" stop-color="#F7DD43" stop-opacity="0"/>
</linearGradient>
<linearGradient id="paint14_linear_11_1061" x1="51.5" y1="364" x2="51.5" y2="675.381" gradientUnits="userSpaceOnUse">
<stop stop-color="#F7DD43"/>
<stop offset="1" stop-color="#F7DD43" stop-opacity="0"/>
</linearGradient>
<linearGradient id="paint15_linear_11_1061" x1="51.5" y1="364" x2="51.5" y2="675.381" gradientUnits="userSpaceOnUse">
<stop stop-color="#F7DD43"/>
<stop offset="1" stop-color="#F7DD43" stop-opacity="0"/>
</linearGradient>
<linearGradient id="paint16_linear_11_1061" x1="51.5" y1="364" x2="51.5" y2="675.381" gradientUnits="userSpaceOnUse">
<stop stop-color="#F7DD43"/>
<stop offset="1" stop-color="#F7DD43" stop-opacity="0"/>
</linearGradient>
<linearGradient id="paint17_linear_11_1061" x1="51.5" y1="364" x2="51.5" y2="675.381" gradientUnits="userSpaceOnUse">
<stop stop-color="#F7DD43"/>
<stop offset="1" stop-color="#F7DD43" stop-opacity="0"/>
</linearGradient>
<linearGradient id="paint18_linear_11_1061" x1="51.5" y1="364" x2="51.5" y2="675.381" gradientUnits="userSpaceOnUse">
<stop stop-color="#F7DD43"/>
<stop offset="1" stop-color="#F7DD43" stop-opacity="0"/>
</linearGradient>
<linearGradient id="paint19_linear_11_1061" x1="51.5" y1="364" x2="51.5" y2="675.381" gradientUnits="userSpaceOnUse">
<stop stop-color="#F7DD43"/>
<stop offset="1" stop-color="#F7DD43" stop-opacity="0"/>
</linearGradient>
<linearGradient id="paint20_linear_11_1061" x1="51.5" y1="364" x2="51.5" y2="675.381" gradientUnits="userSpaceOnUse">
<stop stop-color="#F7DD43"/>
<stop offset="1" stop-color="#F7DD43" stop-opacity="0"/>
</linearGradient>
<linearGradient id="paint21_linear_11_1061" x1="51.5" y1="364" x2="51.5" y2="675.381" gradientUnits="userSpaceOnUse">
<stop stop-color="#F7DD43"/>
<stop offset="1" stop-color="#F7DD43" stop-opacity="0"/>
</linearGradient>
<linearGradient id="paint22_linear_11_1061" x1="51.5" y1="364" x2="51.5" y2="675.381" gradientUnits="userSpaceOnUse">
<stop stop-color="#F7DD43"/>
<stop offset="1" stop-color="#F7DD43" stop-opacity="0"/>
</linearGradient>
<linearGradient id="paint23_linear_11_1061" x1="51.5" y1="364" x2="51.5" y2="675.381" gradientUnits="userSpaceOnUse">
<stop stop-color="#F7DD43"/>
<stop offset="1" stop-color="#F7DD43" stop-opacity="0"/>
</linearGradient>
<linearGradient id="paint24_linear_11_1061" x1="51.5" y1="364" x2="51.5" y2="675.381" gradientUnits="userSpaceOnUse">
<stop stop-color="#F7DD43"/>
<stop offset="1" stop-color="#F7DD43" stop-opacity="0"/>
</linearGradient>
<linearGradient id="paint25_linear_11_1061" x1="51.5" y1="364" x2="51.5" y2="675.381" gradientUnits="userSpaceOnUse">
<stop stop-color="#F7DD43"/>
<stop offset="1" stop-color="#F7DD43" stop-opacity="0"/>
</linearGradient>
<linearGradient id="paint26_linear_11_1061" x1="51.5" y1="364" x2="51.5" y2="675.381" gradientUnits="userSpaceOnUse">
<stop stop-color="#F7DD43"/>
<stop offset="1" stop-color="#F7DD43" stop-opacity="0"/>
</linearGradient>
<linearGradient id="paint27_linear_11_1061" x1="51.5" y1="364" x2="51.5" y2="675.381" gradientUnits="userSpaceOnUse">
<stop stop-color="#F7DD43"/>
<stop offset="1" stop-color="#F7DD43" stop-opacity="0"/>
</linearGradient>
<linearGradient id="paint28_linear_11_1061" x1="51.5" y1="364" x2="51.5" y2="675.381" gradientUnits="userSpaceOnUse">
<stop stop-color="#F7DD43"/>
<stop offset="1" stop-color="#F7DD43" stop-opacity="0"/>
</linearGradient>
<linearGradient id="paint29_linear_11_1061" x1="51.5" y1="364" x2="51.5" y2="675.381" gradientUnits="userSpaceOnUse">
<stop stop-color="#F7DD43"/>
<stop offset="1" stop-color="#F7DD43" stop-opacity="0"/>
</linearGradient>
<linearGradient id="paint30_linear_11_1061" x1="51.5" y1="364" x2="51.5" y2="675.381" gradientUnits="userSpaceOnUse">
<stop stop-color="#F7DD43"/>
<stop offset="1" stop-color="#F7DD43" stop-opacity="0"/>
</linearGradient>
<linearGradient id="paint31_linear_11_1061" x1="51.5" y1="364" x2="51.5" y2="675.381" gradientUnits="userSpaceOnUse">
<stop stop-color="#F7DD43"/>
<stop offset="1" stop-color="#F7DD43" stop-opacity="0"/>
</linearGradient>
<linearGradient id="paint32_linear_11_1061" x1="51.5" y1="364" x2="51.5" y2="675.381" gradientUnits="userSpaceOnUse">
<stop stop-color="#F7DD43"/>
<stop offset="1" stop-color="#F7DD43" stop-opacity="0"/>
</linearGradient>
<linearGradient id="paint33_linear_11_1061" x1="51.5" y1="364" x2="51.5" y2="675.381" gradientUnits="userSpaceOnUse">
<stop stop-color="#F7DD43"/>
<stop offset="1" stop-color="#F7DD43" stop-opacity="0"/>
</linearGradient>
<linearGradient id="paint34_linear_11_1061" x1="51.5" y1="364" x2="51.5" y2="675.381" gradientUnits="userSpaceOnUse">
<stop stop-color="#F7DD43"/>
<stop offset="1" stop-color="#F7DD43" stop-opacity="0"/>
</linearGradient>
<linearGradient id="paint35_linear_11_1061" x1="51.5" y1="364" x2="51.5" y2="675.381" gradientUnits="userSpaceOnUse">
<stop stop-color="#F7DD43"/>
<stop offset="1" stop-color="#F7DD43" stop-opacity="0"/>
</linearGradient>
<linearGradient id="paint36_linear_11_1061" x1="51.5" y1="364" x2="51.5" y2="675.381" gradientUnits="userSpaceOnUse">
<stop stop-color="#F7DD43"/>
<stop offset="1" stop-color="#F7DD43" stop-opacity="0"/>
</linearGradient>
<linearGradient id="paint37_linear_11_1061" x1="51.5" y1="364" x2="51.5" y2="675.381" gradientUnits="userSpaceOnUse">
<stop stop-color="#F7DD43"/>
<stop offset="1" stop-color="#F7DD43" stop-opacity="0"/>
</linearGradient>
<linearGradient id="paint38_linear_11_1061" x1="51.5" y1="364" x2="51.5" y2="675.381" gradientUnits="userSpaceOnUse">
<stop stop-color="#F7DD43"/>
<stop offset="1" stop-color="#F7DD43" stop-opacity="0"/>
</linearGradient>
<linearGradient id="paint39_linear_11_1061" x1="51.5" y1="364" x2="51.5" y2="675.381" gradientUnits="userSpaceOnUse">
<stop stop-color="#F7DD43"/>
<stop offset="1" stop-color="#F7DD43" stop-opacity="0"/>
</linearGradient>
<linearGradient id="paint40_linear_11_1061" x1="51.5" y1="364" x2="51.5" y2="675.381" gradientUnits="userSpaceOnUse">
<stop stop-color="#F7DD43"/>
<stop offset="1" stop-color="#F7DD43" stop-opacity="0"/>
</linearGradient>
<linearGradient id="paint41_linear_11_1061" x1="51.5" y1="364" x2="51.5" y2="675.381" gradientUnits="userSpaceOnUse">
<stop stop-color="#F7DD43"/>
<stop offset="1" stop-color="#F7DD43" stop-opacity="0"/>
</linearGradient>
<linearGradient id="paint42_linear_11_1061" x1="51.5" y1="364" x2="51.5" y2="675.381" gradientUnits="userSpaceOnUse">
<stop stop-color="#F7DD43"/>
<stop offset="1" stop-color="#F7DD43" stop-opacity="0"/>
</linearGradient>
<linearGradient id="paint43_linear_11_1061" x1="51.5" y1="364" x2="51.5" y2="675.381" gradientUnits="userSpaceOnUse">
<stop stop-color="#F7DD43"/>
<stop offset="1" stop-color="#F7DD43" stop-opacity="0"/>
</linearGradient>
<linearGradient id="paint44_linear_11_1061" x1="51.5" y1="364" x2="51.5" y2="675.381" gradientUnits="userSpaceOnUse">
<stop stop-color="#F7DD43"/>
<stop offset="1" stop-color="#F7DD43" stop-opacity="0"/>
</linearGradient>
<linearGradient id="paint45_linear_11_1061" x1="51.5" y1="364" x2="51.5" y2="675.381" gradientUnits="userSpaceOnUse">
<stop stop-color="#F7DD43"/>
<stop offset="1" stop-color="#F7DD43" stop-opacity="0"/>
</linearGradient>
<linearGradient id="paint46_linear_11_1061" x1="51.5" y1="364" x2="51.5" y2="675.381" gradientUnits="userSpaceOnUse">
<stop stop-color="#F7DD43"/>
<stop offset="1" stop-color="#F7DD43" stop-opacity="0"/>
</linearGradient>
<linearGradient id="paint47_linear_11_1061" x1="937.5" y1="64" x2="937.5" y2="362.818" gradientUnits="userSpaceOnUse">
<stop stop-color="#F7DD43"/>
<stop offset="1" stop-color="#F7DD43" stop-opacity="0"/>
</linearGradient>
<linearGradient id="paint48_linear_11_1061" x1="937.5" y1="64" x2="937.5" y2="362.818" gradientUnits="userSpaceOnUse">
<stop stop-color="#F7DD43"/>
<stop offset="1" stop-color="#F7DD43" stop-opacity="0"/>
</linearGradient>
<linearGradient id="paint49_linear_11_1061" x1="937.5" y1="64" x2="937.5" y2="362.818" gradientUnits="userSpaceOnUse">
<stop stop-color="#F7DD43"/>
<stop offset="1" stop-color="#F7DD43" stop-opacity="0"/>
</linearGradient>
<linearGradient id="paint50_linear_11_1061" x1="937.5" y1="64" x2="937.5" y2="362.818" gradientUnits="userSpaceOnUse">
<stop stop-color="#F7DD43"/>
<stop offset="1" stop-color="#F7DD43" stop-opacity="0"/>
</linearGradient>
<linearGradient id="paint51_linear_11_1061" x1="937.5" y1="64" x2="937.5" y2="362.818" gradientUnits="userSpaceOnUse">
<stop stop-color="#F7DD43"/>
<stop offset="1" stop-color="#F7DD43" stop-opacity="0"/>
</linearGradient>
<linearGradient id="paint52_linear_11_1061" x1="937.5" y1="64" x2="937.5" y2="362.818" gradientUnits="userSpaceOnUse">
<stop stop-color="#F7DD43"/>
<stop offset="1" stop-color="#F7DD43" stop-opacity="0"/>
</linearGradient>
<linearGradient id="paint53_linear_11_1061" x1="937.5" y1="64" x2="937.5" y2="362.818" gradientUnits="userSpaceOnUse">
<stop stop-color="#F7DD43"/>
<stop offset="1" stop-color="#F7DD43" stop-opacity="0"/>
</linearGradient>
<linearGradient id="paint54_linear_11_1061" x1="937.5" y1="64" x2="937.5" y2="362.818" gradientUnits="userSpaceOnUse">
<stop stop-color="#F7DD43"/>
<stop offset="1" stop-color="#F7DD43" stop-opacity="0"/>
</linearGradient>
<linearGradient id="paint55_linear_11_1061" x1="937.5" y1="64" x2="937.5" y2="362.818" gradientUnits="userSpaceOnUse">
<stop stop-color="#F7DD43"/>
<stop offset="1" stop-color="#F7DD43" stop-opacity="0"/>
</linearGradient>
<linearGradient id="paint56_linear_11_1061" x1="937.5" y1="64" x2="937.5" y2="362.818" gradientUnits="userSpaceOnUse">
<stop stop-color="#F7DD43"/>
<stop offset="1" stop-color="#F7DD43" stop-opacity="0"/>
</linearGradient>
<linearGradient id="paint57_linear_11_1061" x1="937.5" y1="64" x2="937.5" y2="362.818" gradientUnits="userSpaceOnUse">
<stop stop-color="#F7DD43"/>
<stop offset="1" stop-color="#F7DD43" stop-opacity="0"/>
</linearGradient>
<linearGradient id="paint58_linear_11_1061" x1="937.5" y1="64" x2="937.5" y2="362.818" gradientUnits="userSpaceOnUse">
<stop stop-color="#F7DD43"/>
<stop offset="1" stop-color="#F7DD43" stop-opacity="0"/>
</linearGradient>
<linearGradient id="paint59_linear_11_1061" x1="937.5" y1="64" x2="937.5" y2="362.818" gradientUnits="userSpaceOnUse">
<stop stop-color="#F7DD43"/>
<stop offset="1" stop-color="#F7DD43" stop-opacity="0"/>
</linearGradient>
<linearGradient id="paint60_linear_11_1061" x1="937.5" y1="64" x2="937.5" y2="362.818" gradientUnits="userSpaceOnUse">
<stop stop-color="#F7DD43"/>
<stop offset="1" stop-color="#F7DD43" stop-opacity="0"/>
</linearGradient>
<linearGradient id="paint61_linear_11_1061" x1="937.5" y1="64" x2="937.5" y2="362.818" gradientUnits="userSpaceOnUse">
<stop stop-color="#F7DD43"/>
<stop offset="1" stop-color="#F7DD43" stop-opacity="0"/>
</linearGradient>
<linearGradient id="paint62_linear_11_1061" x1="937.5" y1="64" x2="937.5" y2="362.818" gradientUnits="userSpaceOnUse">
<stop stop-color="#F7DD43"/>
<stop offset="1" stop-color="#F7DD43" stop-opacity="0"/>
</linearGradient>
<linearGradient id="paint63_linear_11_1061" x1="937.5" y1="64" x2="937.5" y2="362.818" gradientUnits="userSpaceOnUse">
<stop stop-color="#F7DD43"/>
<stop offset="1" stop-color="#F7DD43" stop-opacity="0"/>
</linearGradient>
<linearGradient id="paint64_linear_11_1061" x1="937.5" y1="64" x2="937.5" y2="362.818" gradientUnits="userSpaceOnUse">
<stop stop-color="#F7DD43"/>
<stop offset="1" stop-color="#F7DD43" stop-opacity="0"/>
</linearGradient>
<linearGradient id="paint65_linear_11_1061" x1="937.5" y1="64" x2="937.5" y2="362.818" gradientUnits="userSpaceOnUse">
<stop stop-color="#F7DD43"/>
<stop offset="1" stop-color="#F7DD43" stop-opacity="0"/>
</linearGradient>
<linearGradient id="paint66_linear_11_1061" x1="937.5" y1="64" x2="937.5" y2="362.818" gradientUnits="userSpaceOnUse">
<stop stop-color="#F7DD43"/>
<stop offset="1" stop-color="#F7DD43" stop-opacity="0"/>
</linearGradient>
<linearGradient id="paint67_linear_11_1061" x1="937.5" y1="64" x2="937.5" y2="362.818" gradientUnits="userSpaceOnUse">
<stop stop-color="#F7DD43"/>
<stop offset="1" stop-color="#F7DD43" stop-opacity="0"/>
</linearGradient>
<linearGradient id="paint68_linear_11_1061" x1="937.5" y1="64" x2="937.5" y2="362.818" gradientUnits="userSpaceOnUse">
<stop stop-color="#F7DD43"/>
<stop offset="1" stop-color="#F7DD43" stop-opacity="0"/>
</linearGradient>
<linearGradient id="paint69_linear_11_1061" x1="937.5" y1="64" x2="937.5" y2="362.818" gradientUnits="userSpaceOnUse">
<stop stop-color="#F7DD43"/>
<stop offset="1" stop-color="#F7DD43" stop-opacity="0"/>
</linearGradient>
<linearGradient id="paint70_linear_11_1061" x1="937.5" y1="64" x2="937.5" y2="362.818" gradientUnits="userSpaceOnUse">
<stop stop-color="#F7DD43"/>
<stop offset="1" stop-color="#F7DD43" stop-opacity="0"/>
</linearGradient>
<linearGradient id="paint71_linear_11_1061" x1="937.5" y1="64" x2="937.5" y2="362.818" gradientUnits="userSpaceOnUse">
<stop stop-color="#F7DD43"/>
<stop offset="1" stop-color="#F7DD43" stop-opacity="0"/>
</linearGradient>
<linearGradient id="paint72_linear_11_1061" x1="937.5" y1="64" x2="937.5" y2="362.818" gradientUnits="userSpaceOnUse">
<stop stop-color="#F7DD43"/>
<stop offset="1" stop-color="#F7DD43" stop-opacity="0"/>
</linearGradient>
<linearGradient id="paint73_linear_11_1061" x1="937.5" y1="64" x2="937.5" y2="362.818" gradientUnits="userSpaceOnUse">
<stop stop-color="#F7DD43"/>
<stop offset="1" stop-color="#F7DD43" stop-opacity="0"/>
</linearGradient>
<linearGradient id="paint74_linear_11_1061" x1="937.5" y1="64" x2="937.5" y2="362.818" gradientUnits="userSpaceOnUse">
<stop stop-color="#F7DD43"/>
<stop offset="1" stop-color="#F7DD43" stop-opacity="0"/>
</linearGradient>
<linearGradient id="paint75_linear_11_1061" x1="937.5" y1="64" x2="937.5" y2="362.818" gradientUnits="userSpaceOnUse">
<stop stop-color="#F7DD43"/>
<stop offset="1" stop-color="#F7DD43" stop-opacity="0"/>
</linearGradient>
<linearGradient id="paint76_linear_11_1061" x1="937.5" y1="64" x2="937.5" y2="362.818" gradientUnits="userSpaceOnUse">
<stop stop-color="#F7DD43"/>
<stop offset="1" stop-color="#F7DD43" stop-opacity="0"/>
</linearGradient>
<linearGradient id="paint77_linear_11_1061" x1="937.5" y1="64" x2="937.5" y2="362.818" gradientUnits="userSpaceOnUse">
<stop stop-color="#F7DD43"/>
<stop offset="1" stop-color="#F7DD43" stop-opacity="0"/>
</linearGradient>
<linearGradient id="paint78_linear_11_1061" x1="937.5" y1="64" x2="937.5" y2="362.818" gradientUnits="userSpaceOnUse">
<stop stop-color="#F7DD43"/>
<stop offset="1" stop-color="#F7DD43" stop-opacity="0"/>
</linearGradient>
<linearGradient id="paint79_linear_11_1061" x1="937.5" y1="64" x2="937.5" y2="362.818" gradientUnits="userSpaceOnUse">
<stop stop-color="#F7DD43"/>
<stop offset="1" stop-color="#F7DD43" stop-opacity="0"/>
</linearGradient>
<linearGradient id="paint80_linear_11_1061" x1="937.5" y1="64" x2="937.5" y2="362.818" gradientUnits="userSpaceOnUse">
<stop stop-color="#F7DD43"/>
<stop offset="1" stop-color="#F7DD43" stop-opacity="0"/>
</linearGradient>
<linearGradient id="paint81_linear_11_1061" x1="937.5" y1="64" x2="937.5" y2="362.818" gradientUnits="userSpaceOnUse">
<stop stop-color="#F7DD43"/>
<stop offset="1" stop-color="#F7DD43" stop-opacity="0"/>
</linearGradient>
<linearGradient id="paint82_linear_11_1061" x1="937.5" y1="64" x2="937.5" y2="362.818" gradientUnits="userSpaceOnUse">
<stop stop-color="#F7DD43"/>
<stop offset="1" stop-color="#F7DD43" stop-opacity="0"/>
</linearGradient>
<linearGradient id="paint83_linear_11_1061" x1="937.5" y1="64" x2="937.5" y2="362.818" gradientUnits="userSpaceOnUse">
<stop stop-color="#F7DD43"/>
<stop offset="1" stop-color="#F7DD43" stop-opacity="0"/>
</linearGradient>
<linearGradient id="paint84_linear_11_1061" x1="937.5" y1="64" x2="937.5" y2="362.818" gradientUnits="userSpaceOnUse">
<stop stop-color="#F7DD43"/>
<stop offset="1" stop-color="#F7DD43" stop-opacity="0"/>
</linearGradient>
<linearGradient id="paint85_linear_11_1061" x1="937.5" y1="64" x2="937.5" y2="362.818" gradientUnits="userSpaceOnUse">
<stop stop-color="#F7DD43"/>
<stop offset="1" stop-color="#F7DD43" stop-opacity="0"/>
</linearGradient>
<linearGradient id="paint86_linear_11_1061" x1="937.5" y1="64" x2="937.5" y2="362.818" gradientUnits="userSpaceOnUse">
<stop stop-color="#F7DD43"/>
<stop offset="1" stop-color="#F7DD43" stop-opacity="0"/>
</linearGradient>
<linearGradient id="paint87_linear_11_1061" x1="937.5" y1="64" x2="937.5" y2="362.818" gradientUnits="userSpaceOnUse">
<stop stop-color="#F7DD43"/>
<stop offset="1" stop-color="#F7DD43" stop-opacity="0"/>
</linearGradient>
<linearGradient id="paint88_linear_11_1061" x1="937.5" y1="64" x2="937.5" y2="362.818" gradientUnits="userSpaceOnUse">
<stop stop-color="#F7DD43"/>
<stop offset="1" stop-color="#F7DD43" stop-opacity="0"/>
</linearGradient>
<linearGradient id="paint89_linear_11_1061" x1="937.5" y1="64" x2="937.5" y2="362.818" gradientUnits="userSpaceOnUse">
<stop stop-color="#F7DD43"/>
<stop offset="1" stop-color="#F7DD43" stop-opacity="0"/>
</linearGradient>
<linearGradient id="paint90_linear_11_1061" x1="937.5" y1="64" x2="937.5" y2="362.818" gradientUnits="userSpaceOnUse">
<stop stop-color="#F7DD43"/>
<stop offset="1" stop-color="#F7DD43" stop-opacity="0"/>
</linearGradient>
<linearGradient id="paint91_linear_11_1061" x1="937.5" y1="64" x2="937.5" y2="362.818" gradientUnits="userSpaceOnUse">
<stop stop-color="#F7DD43"/>
<stop offset="1" stop-color="#F7DD43" stop-opacity="0"/>
</linearGradient>
<linearGradient id="paint92_linear_11_1061" x1="937.5" y1="64" x2="937.5" y2="362.818" gradientUnits="userSpaceOnUse">
<stop stop-color="#F7DD43"/>
<stop offset="1" stop-color="#F7DD43" stop-opacity="0"/>
</linearGradient>
<linearGradient id="paint93_linear_11_1061" x1="937.5" y1="64" x2="937.5" y2="362.818" gradientUnits="userSpaceOnUse">
<stop stop-color="#F7DD43"/>
<stop offset="1" stop-color="#F7DD43" stop-opacity="0"/>
</linearGradient>
</defs>
</svg>
