<svg width="400" height="1145" viewBox="0 0 400 1145" fill="none" xmlns="http://www.w3.org/2000/svg">
<g clip-path="url(#clip0_114_165)">
<rect width="400" height="1145" fill="#121214"/>
<g opacity="0.2" filter="url(#filter0_f_114_165)">
<ellipse cx="200.5" cy="34" rx="670.5" ry="350" fill="#338AF3"/>
</g>
<mask id="path-2-inside-1_114_165" fill="white">
<path d="M43 185C43 181.686 45.6863 179 49 179H353C356.314 179 359 181.686 359 185V583.818C359 587.132 356.314 589.818 353 589.818H49C45.6863 589.818 43 587.132 43 583.818V185Z"/>
</mask>
<path d="M43 185C43 181.686 45.6863 179 49 179H353C356.314 179 359 181.686 359 185V583.818C359 587.132 356.314 589.818 353 589.818H49C45.6863 589.818 43 587.132 43 583.818V185Z" fill="#1D1C19"/>
<path d="M142.312 239.363V242H130.641V239.75L136.16 233.832C136.715 233.215 137.152 232.672 137.473 232.203C137.793 231.727 138.023 231.301 138.164 230.926C138.312 230.543 138.387 230.18 138.387 229.836C138.387 229.32 138.301 228.879 138.129 228.512C137.957 228.137 137.703 227.848 137.367 227.645C137.039 227.441 136.633 227.34 136.148 227.34C135.633 227.34 135.188 227.465 134.812 227.715C134.445 227.965 134.164 228.312 133.969 228.758C133.781 229.203 133.688 229.707 133.688 230.27H130.301C130.301 229.254 130.543 228.324 131.027 227.48C131.512 226.629 132.195 225.953 133.078 225.453C133.961 224.945 135.008 224.691 136.219 224.691C137.414 224.691 138.422 224.887 139.242 225.277C140.07 225.66 140.695 226.215 141.117 226.941C141.547 227.66 141.762 228.52 141.762 229.52C141.762 230.082 141.672 230.633 141.492 231.172C141.312 231.703 141.055 232.234 140.719 232.766C140.391 233.289 139.992 233.82 139.523 234.359C139.055 234.898 138.535 235.457 137.965 236.035L135 239.363H142.312ZM152.648 224.902V242H149.273V228.793L145.219 230.082V227.422L152.285 224.902H152.648ZM165.633 224.938L159.375 243.465H156.867L163.125 224.938H165.633ZM175.336 224.902V242H171.961V228.793L167.906 230.082V227.422L174.973 224.902H175.336ZM189.117 224.902V242H185.742V228.793L181.688 230.082V227.422L188.754 224.902H189.117Z" fill="#F7DD43"/>
<path d="M215.57 236.396C215.57 236.218 215.543 236.058 215.488 235.917C215.438 235.771 215.342 235.639 215.201 235.521C215.06 235.397 214.862 235.277 214.606 235.158C214.351 235.04 214.021 234.917 213.615 234.789C213.164 234.643 212.736 234.479 212.33 234.297C211.929 234.115 211.574 233.903 211.264 233.661C210.958 233.415 210.717 233.13 210.539 232.807C210.366 232.483 210.279 232.107 210.279 231.679C210.279 231.264 210.37 230.888 210.553 230.551C210.735 230.209 210.99 229.917 211.318 229.676C211.646 229.43 212.034 229.241 212.48 229.108C212.932 228.976 213.426 228.91 213.964 228.91C214.698 228.91 215.338 229.042 215.885 229.307C216.432 229.571 216.855 229.933 217.156 230.394C217.462 230.854 217.614 231.38 217.614 231.973H215.577C215.577 231.681 215.516 231.426 215.393 231.207C215.274 230.984 215.092 230.808 214.846 230.681C214.604 230.553 214.299 230.489 213.93 230.489C213.574 230.489 213.278 230.544 213.041 230.653C212.804 230.758 212.626 230.902 212.508 231.084C212.389 231.262 212.33 231.462 212.33 231.686C212.33 231.854 212.371 232.007 212.453 232.144C212.54 232.28 212.667 232.408 212.836 232.526C213.005 232.645 213.212 232.757 213.458 232.861C213.704 232.966 213.989 233.069 214.312 233.169C214.855 233.333 215.331 233.518 215.741 233.723C216.156 233.928 216.502 234.158 216.78 234.413C217.058 234.668 217.268 234.958 217.409 235.281C217.55 235.605 217.621 235.972 217.621 236.382C217.621 236.815 217.537 237.202 217.368 237.544C217.2 237.886 216.956 238.175 216.637 238.412C216.318 238.649 215.937 238.829 215.495 238.952C215.053 239.075 214.559 239.137 214.012 239.137C213.52 239.137 213.034 239.073 212.556 238.945C212.077 238.813 211.642 238.615 211.25 238.351C210.863 238.086 210.553 237.749 210.32 237.339C210.088 236.929 209.972 236.443 209.972 235.883H212.029C212.029 236.193 212.077 236.455 212.173 236.669C212.269 236.883 212.403 237.056 212.576 237.188C212.754 237.321 212.964 237.416 213.205 237.476C213.451 237.535 213.72 237.564 214.012 237.564C214.367 237.564 214.659 237.514 214.887 237.414C215.119 237.314 215.29 237.175 215.399 236.997C215.513 236.819 215.57 236.619 215.57 236.396ZM225.694 237.4V239H220.396V237.4H225.694ZM221.066 229.047V239H219.016V229.047H221.066ZM225.004 233.101V234.659H220.396V233.101H225.004ZM225.688 229.047V230.653H220.396V229.047H225.688ZM234.779 233.798V237.742C234.624 237.929 234.385 238.132 234.062 238.351C233.738 238.565 233.321 238.749 232.811 238.904C232.3 239.059 231.683 239.137 230.958 239.137C230.315 239.137 229.73 239.032 229.201 238.822C228.673 238.608 228.217 238.296 227.834 237.886C227.456 237.476 227.164 236.974 226.959 236.382C226.754 235.785 226.651 235.104 226.651 234.338V233.716C226.651 232.95 226.749 232.269 226.945 231.672C227.146 231.075 227.431 230.571 227.8 230.161C228.169 229.751 228.609 229.439 229.119 229.225C229.63 229.01 230.197 228.903 230.821 228.903C231.687 228.903 232.398 229.045 232.954 229.327C233.51 229.605 233.934 229.993 234.226 230.489C234.522 230.981 234.704 231.547 234.772 232.185H232.783C232.733 231.847 232.637 231.553 232.496 231.303C232.355 231.052 232.152 230.856 231.888 230.715C231.628 230.574 231.291 230.503 230.876 230.503C230.534 230.503 230.229 230.574 229.96 230.715C229.696 230.852 229.472 231.054 229.29 231.323C229.108 231.592 228.969 231.925 228.873 232.321C228.777 232.718 228.729 233.178 228.729 233.702V234.338C228.729 234.857 228.78 235.318 228.88 235.719C228.98 236.115 229.128 236.45 229.324 236.724C229.525 236.993 229.771 237.195 230.062 237.332C230.354 237.469 230.694 237.537 231.081 237.537C231.405 237.537 231.674 237.51 231.888 237.455C232.106 237.4 232.282 237.334 232.414 237.257C232.551 237.175 232.656 237.097 232.729 237.024V235.261H230.855V233.798H234.779ZM241.93 229.047H243.974V235.623C243.974 236.389 243.81 237.034 243.481 237.558C243.158 238.082 242.709 238.476 242.135 238.74C241.565 239.005 240.909 239.137 240.166 239.137C239.423 239.137 238.762 239.005 238.184 238.74C237.609 238.476 237.158 238.082 236.83 237.558C236.507 237.034 236.345 236.389 236.345 235.623V229.047H238.396V235.623C238.396 236.07 238.466 236.434 238.607 236.717C238.749 236.999 238.951 237.207 239.216 237.339C239.485 237.471 239.801 237.537 240.166 237.537C240.54 237.537 240.856 237.471 241.116 237.339C241.381 237.207 241.581 236.999 241.718 236.717C241.859 236.434 241.93 236.07 241.93 235.623V229.047ZM253.763 229.047V239H251.712L247.713 232.328V239H245.662V229.047H247.713L251.719 235.726V229.047H253.763ZM258.603 239H256.436L256.449 237.4H258.603C259.14 237.4 259.594 237.28 259.963 237.038C260.332 236.792 260.61 236.434 260.797 235.965C260.988 235.495 261.084 234.928 261.084 234.263V233.777C261.084 233.267 261.029 232.818 260.92 232.431C260.815 232.043 260.658 231.717 260.448 231.453C260.239 231.189 259.981 230.991 259.676 230.858C259.37 230.722 259.02 230.653 258.623 230.653H256.395V229.047H258.623C259.288 229.047 259.897 229.161 260.448 229.389C261.004 229.612 261.485 229.933 261.891 230.353C262.296 230.772 262.608 231.273 262.827 231.856C263.05 232.435 263.162 233.08 263.162 233.791V234.263C263.162 234.969 263.05 235.614 262.827 236.197C262.608 236.781 262.296 237.282 261.891 237.701C261.49 238.116 261.009 238.437 260.448 238.665C259.892 238.888 259.277 239 258.603 239ZM257.598 229.047V239H255.547V229.047H257.598ZM268.549 230.749L265.842 239H263.661L267.359 229.047H268.747L268.549 230.749ZM270.798 239L268.084 230.749L267.865 229.047H269.267L272.985 239H270.798ZM270.675 235.295V236.901H265.418V235.295H270.675Z" fill="#E1E1E6"/>
<rect x="113" y="211.5" width="176" height="45" rx="5.5" stroke="#746615"/>
<g clip-path="url(#clip1_114_165)">
<path d="M91 360C104.807 360 116 348.807 116 335C116 321.193 104.807 310 91 310C77.1929 310 66 321.193 66 335C66 348.807 77.1929 360 91 360Z" fill="#6DA544"/>
<path d="M91 319.783L111.652 335L91 350.217L70.3478 335L91 319.783Z" fill="#FFDA44"/>
<path d="M91 343.696C95.8024 343.696 99.6956 339.802 99.6956 335C99.6956 330.198 95.8024 326.304 91 326.304C86.1975 326.304 82.3044 330.198 82.3044 335C82.3044 339.802 86.1975 343.696 91 343.696Z" fill="#F0F0F0"/>
<path d="M86.6521 334.457C85.14 334.457 83.6808 334.687 82.3071 335.113C82.368 339.863 86.2355 343.696 91 343.696C93.9461 343.696 96.548 342.229 98.121 339.988C95.4299 336.619 91.2892 334.457 86.6521 334.457Z" fill="#0052B4"/>
<path d="M99.5345 336.666C99.6392 336.127 99.6957 335.57 99.6957 335C99.6957 330.197 95.8025 326.304 91.0001 326.304C87.4167 326.304 84.3405 328.472 83.0093 331.568C84.186 331.324 85.4044 331.196 86.6523 331.196C91.7028 331.196 96.2718 333.295 99.5345 336.666Z" fill="#0052B4"/>
</g>
<path d="M173.174 332.365V337.041C173.174 338.881 172.957 340.48 172.523 341.84C172.102 343.199 171.492 344.324 170.695 345.215C169.91 346.105 168.973 346.768 167.883 347.201C166.793 347.635 165.592 347.852 164.279 347.852C163.225 347.852 162.24 347.717 161.326 347.447C160.412 347.166 159.586 346.744 158.848 346.182C158.121 345.607 157.494 344.893 156.967 344.037C156.439 343.182 156.035 342.174 155.754 341.014C155.473 339.842 155.332 338.518 155.332 337.041V332.365C155.332 330.514 155.543 328.914 155.965 327.566C156.398 326.207 157.014 325.082 157.811 324.191C158.607 323.301 159.551 322.639 160.641 322.205C161.73 321.771 162.932 321.555 164.244 321.555C165.299 321.555 166.277 321.695 167.18 321.977C168.094 322.246 168.92 322.668 169.658 323.242C170.396 323.805 171.023 324.514 171.539 325.369C172.066 326.225 172.471 327.238 172.752 328.41C173.033 329.57 173.174 330.889 173.174 332.365ZM167.25 337.762V331.609C167.25 330.789 167.203 330.074 167.109 329.465C167.027 328.855 166.898 328.34 166.723 327.918C166.559 327.496 166.354 327.156 166.107 326.898C165.861 326.629 165.58 326.436 165.264 326.318C164.959 326.189 164.619 326.125 164.244 326.125C163.775 326.125 163.354 326.225 162.979 326.424C162.615 326.611 162.305 326.916 162.047 327.338C161.789 327.76 161.59 328.322 161.449 329.025C161.32 329.729 161.256 330.59 161.256 331.609V337.762C161.256 338.594 161.297 339.32 161.379 339.941C161.473 340.551 161.602 341.072 161.766 341.506C161.941 341.928 162.152 342.273 162.398 342.543C162.645 342.801 162.926 342.988 163.242 343.105C163.559 343.223 163.904 343.281 164.279 343.281C164.736 343.281 165.146 343.188 165.51 343C165.873 342.812 166.184 342.508 166.441 342.086C166.711 341.652 166.91 341.084 167.039 340.381C167.18 339.666 167.25 338.793 167.25 337.762ZM194.057 340.451C194.057 342.08 193.67 343.445 192.896 344.547C192.135 345.648 191.08 346.475 189.732 347.025C188.396 347.576 186.873 347.852 185.162 347.852C183.463 347.852 181.934 347.576 180.574 347.025C179.227 346.475 178.16 345.648 177.375 344.547C176.59 343.445 176.197 342.08 176.197 340.451C176.197 339.338 176.42 338.342 176.865 337.463C177.322 336.572 177.955 335.816 178.764 335.195C179.572 334.574 180.516 334.1 181.594 333.771C182.684 333.443 183.861 333.279 185.127 333.279C186.838 333.279 188.367 333.572 189.715 334.158C191.062 334.732 192.123 335.553 192.896 336.619C193.67 337.686 194.057 338.963 194.057 340.451ZM188.098 339.977C188.098 339.273 187.975 338.682 187.729 338.201C187.482 337.709 187.137 337.334 186.691 337.076C186.246 336.818 185.725 336.689 185.127 336.689C184.541 336.689 184.02 336.818 183.562 337.076C183.117 337.334 182.766 337.709 182.508 338.201C182.262 338.682 182.139 339.273 182.139 339.977C182.139 340.656 182.268 341.248 182.525 341.752C182.783 342.244 183.135 342.625 183.58 342.895C184.037 343.152 184.564 343.281 185.162 343.281C185.76 343.281 186.275 343.152 186.709 342.895C187.154 342.625 187.494 342.244 187.729 341.752C187.975 341.248 188.098 340.656 188.098 339.977ZM193.529 328.744C193.529 330.08 193.172 331.252 192.457 332.26C191.754 333.256 190.77 334.035 189.504 334.598C188.25 335.148 186.803 335.424 185.162 335.424C183.533 335.424 182.08 335.148 180.803 334.598C179.537 334.035 178.541 333.256 177.814 332.26C177.1 331.252 176.742 330.08 176.742 328.744C176.742 327.174 177.1 325.855 177.814 324.789C178.541 323.723 179.537 322.914 180.803 322.363C182.068 321.812 183.51 321.537 185.127 321.537C186.768 321.537 188.221 321.812 189.486 322.363C190.752 322.914 191.742 323.723 192.457 324.789C193.172 325.855 193.529 327.174 193.529 328.744ZM187.605 329.061C187.605 328.451 187.512 327.93 187.324 327.496C187.137 327.051 186.861 326.711 186.498 326.477C186.135 326.23 185.678 326.107 185.127 326.107C184.6 326.107 184.154 326.225 183.791 326.459C183.428 326.693 183.152 327.033 182.965 327.479C182.777 327.912 182.684 328.439 182.684 329.061C182.684 329.67 182.777 330.203 182.965 330.66C183.152 331.117 183.428 331.475 183.791 331.732C184.166 331.99 184.623 332.119 185.162 332.119C185.713 332.119 186.164 331.99 186.516 331.732C186.879 331.475 187.148 331.117 187.324 330.66C187.512 330.203 187.605 329.67 187.605 329.061ZM197.66 344.723C197.66 343.879 197.965 343.176 198.574 342.613C199.184 342.039 199.969 341.752 200.93 341.752C201.902 341.752 202.688 342.039 203.285 342.613C203.895 343.176 204.199 343.879 204.199 344.723C204.199 345.566 203.895 346.275 203.285 346.85C202.688 347.412 201.902 347.693 200.93 347.693C199.969 347.693 199.184 347.412 198.574 346.85C197.965 346.275 197.66 345.566 197.66 344.723ZM197.66 330.695C197.66 329.852 197.965 329.148 198.574 328.586C199.184 328.012 199.969 327.725 200.93 327.725C201.902 327.725 202.688 328.012 203.285 328.586C203.895 329.148 204.199 329.852 204.199 330.695C204.199 331.539 203.895 332.248 203.285 332.822C202.688 333.385 201.902 333.666 200.93 333.666C199.969 333.666 199.184 333.385 198.574 332.822C197.965 332.248 197.66 331.539 197.66 330.695ZM225.768 332.365V337.041C225.768 338.881 225.551 340.48 225.117 341.84C224.695 343.199 224.086 344.324 223.289 345.215C222.504 346.105 221.566 346.768 220.477 347.201C219.387 347.635 218.186 347.852 216.873 347.852C215.818 347.852 214.834 347.717 213.92 347.447C213.006 347.166 212.18 346.744 211.441 346.182C210.715 345.607 210.088 344.893 209.561 344.037C209.033 343.182 208.629 342.174 208.348 341.014C208.066 339.842 207.926 338.518 207.926 337.041V332.365C207.926 330.514 208.137 328.914 208.559 327.566C208.992 326.207 209.607 325.082 210.404 324.191C211.201 323.301 212.145 322.639 213.234 322.205C214.324 321.771 215.525 321.555 216.838 321.555C217.893 321.555 218.871 321.695 219.773 321.977C220.688 322.246 221.514 322.668 222.252 323.242C222.99 323.805 223.617 324.514 224.133 325.369C224.66 326.225 225.064 327.238 225.346 328.41C225.627 329.57 225.768 330.889 225.768 332.365ZM219.844 337.762V331.609C219.844 330.789 219.797 330.074 219.703 329.465C219.621 328.855 219.492 328.34 219.316 327.918C219.152 327.496 218.947 327.156 218.701 326.898C218.455 326.629 218.174 326.436 217.857 326.318C217.553 326.189 217.213 326.125 216.838 326.125C216.369 326.125 215.947 326.225 215.572 326.424C215.209 326.611 214.898 326.916 214.641 327.338C214.383 327.76 214.184 328.322 214.043 329.025C213.914 329.729 213.85 330.59 213.85 331.609V337.762C213.85 338.594 213.891 339.32 213.973 339.941C214.066 340.551 214.195 341.072 214.359 341.506C214.535 341.928 214.746 342.273 214.992 342.543C215.238 342.801 215.52 342.988 215.836 343.105C216.152 343.223 216.498 343.281 216.873 343.281C217.33 343.281 217.74 343.188 218.104 343C218.467 342.812 218.777 342.508 219.035 342.086C219.305 341.652 219.504 341.084 219.633 340.381C219.773 339.666 219.844 338.793 219.844 337.762ZM246.65 332.365V337.041C246.65 338.881 246.434 340.48 246 341.84C245.578 343.199 244.969 344.324 244.172 345.215C243.387 346.105 242.449 346.768 241.359 347.201C240.27 347.635 239.068 347.852 237.756 347.852C236.701 347.852 235.717 347.717 234.803 347.447C233.889 347.166 233.062 346.744 232.324 346.182C231.598 345.607 230.971 344.893 230.443 344.037C229.916 343.182 229.512 342.174 229.23 341.014C228.949 339.842 228.809 338.518 228.809 337.041V332.365C228.809 330.514 229.02 328.914 229.441 327.566C229.875 326.207 230.49 325.082 231.287 324.191C232.084 323.301 233.027 322.639 234.117 322.205C235.207 321.771 236.408 321.555 237.721 321.555C238.775 321.555 239.754 321.695 240.656 321.977C241.57 322.246 242.396 322.668 243.135 323.242C243.873 323.805 244.5 324.514 245.016 325.369C245.543 326.225 245.947 327.238 246.229 328.41C246.51 329.57 246.65 330.889 246.65 332.365ZM240.727 337.762V331.609C240.727 330.789 240.68 330.074 240.586 329.465C240.504 328.855 240.375 328.34 240.199 327.918C240.035 327.496 239.83 327.156 239.584 326.898C239.338 326.629 239.057 326.436 238.74 326.318C238.436 326.189 238.096 326.125 237.721 326.125C237.252 326.125 236.83 326.225 236.455 326.424C236.092 326.611 235.781 326.916 235.523 327.338C235.266 327.76 235.066 328.322 234.926 329.025C234.797 329.729 234.732 330.59 234.732 331.609V337.762C234.732 338.594 234.773 339.32 234.855 339.941C234.949 340.551 235.078 341.072 235.242 341.506C235.418 341.928 235.629 342.273 235.875 342.543C236.121 342.801 236.402 342.988 236.719 343.105C237.035 343.223 237.381 343.281 237.756 343.281C238.213 343.281 238.623 343.188 238.986 343C239.35 342.812 239.66 342.508 239.918 342.086C240.188 341.652 240.387 341.084 240.516 340.381C240.656 339.666 240.727 338.793 240.727 337.762Z" fill="#E1E1E6"/>
<g clip-path="url(#clip2_114_165)">
<path d="M321.87 312.481C318.583 310.891 314.896 310 311 310C307.104 310 303.417 310.891 300.13 312.481L297.957 335L300.13 357.519C303.417 359.109 307.104 360 311 360C314.896 360 318.583 359.109 321.87 357.519L324.043 335L321.87 312.481Z" fill="#D80027"/>
<path d="M311 326.304L313.158 332.947H320.143L314.492 337.053L316.651 343.696L311 339.59L305.349 343.696L307.508 337.053L301.857 332.947H308.841L311 326.304Z" fill="#FFDA44"/>
<path d="M300.13 312.482C291.768 316.525 286 325.089 286 335C286 344.912 291.768 353.475 300.13 357.518V312.482Z" fill="#496E2D"/>
<path d="M321.87 312.482V357.518C330.232 353.475 336 344.911 336 335C336 325.089 330.232 316.525 321.87 312.482Z" fill="#FFDA44"/>
</g>
<line x1="66.0024" y1="383.5" x2="336.001" y2="384.409" stroke="#323238"/>
<g clip-path="url(#clip3_114_165)">
<path d="M67.555 425.213C66.5501 427.922 66 430.851 66 433.909C66 436.967 66.5501 439.896 67.555 442.605L91 444.779L114.445 442.605C115.45 439.896 116 436.967 116 433.909C116 430.851 115.45 427.922 114.445 425.213L91 423.04L67.555 425.213Z" fill="#F0F0F0"/>
<path d="M91 408.909C80.251 408.909 71.0873 415.693 67.5551 425.213H114.445C110.913 415.693 101.749 408.909 91 408.909Z" fill="#D80027"/>
<path d="M91 458.909C101.749 458.909 110.913 452.125 114.445 442.605H67.5551C71.0873 452.125 80.251 458.909 91 458.909Z" fill="#6DA544"/>
</g>
<path d="M168.516 420.815V446.409H162.592V427.495L156.756 429.2V424.7L167.971 420.815H168.516ZM181.682 431.134H184.564C185.303 431.134 185.906 431.005 186.375 430.747C186.855 430.477 187.213 430.102 187.447 429.622C187.682 429.13 187.799 428.55 187.799 427.882C187.799 427.366 187.688 426.891 187.465 426.458C187.254 426.024 186.926 425.679 186.48 425.421C186.035 425.151 185.467 425.016 184.775 425.016C184.307 425.016 183.85 425.116 183.404 425.315C182.959 425.503 182.59 425.772 182.297 426.124C182.016 426.475 181.875 426.903 181.875 427.407H175.934C175.934 425.954 176.332 424.712 177.129 423.681C177.938 422.638 178.998 421.841 180.311 421.29C181.635 420.727 183.059 420.446 184.582 420.446C186.398 420.446 187.992 420.727 189.363 421.29C190.734 421.841 191.801 422.661 192.562 423.751C193.336 424.829 193.723 426.165 193.723 427.759C193.723 428.638 193.518 429.464 193.107 430.237C192.697 431.011 192.123 431.69 191.385 432.276C190.646 432.862 189.779 433.325 188.783 433.665C187.799 433.993 186.721 434.157 185.549 434.157H181.682V431.134ZM181.682 435.546V432.593H185.549C186.826 432.593 187.992 432.739 189.047 433.032C190.102 433.313 191.01 433.735 191.771 434.298C192.533 434.86 193.119 435.557 193.529 436.39C193.939 437.21 194.145 438.153 194.145 439.22C194.145 440.415 193.904 441.481 193.424 442.419C192.943 443.356 192.27 444.147 191.402 444.792C190.535 445.436 189.521 445.929 188.361 446.268C187.201 446.597 185.941 446.761 184.582 446.761C183.516 446.761 182.449 446.62 181.383 446.339C180.316 446.046 179.344 445.6 178.465 445.003C177.586 444.393 176.877 443.62 176.338 442.682C175.811 441.733 175.547 440.602 175.547 439.29H181.488C181.488 439.829 181.635 440.321 181.928 440.766C182.232 441.2 182.637 441.546 183.141 441.804C183.645 442.061 184.189 442.19 184.775 442.19C185.502 442.19 186.117 442.056 186.621 441.786C187.137 441.505 187.529 441.13 187.799 440.661C188.068 440.192 188.203 439.671 188.203 439.097C188.203 438.229 188.057 437.538 187.764 437.022C187.482 436.507 187.066 436.132 186.516 435.897C185.977 435.663 185.326 435.546 184.564 435.546H181.682ZM197.66 443.632C197.66 442.788 197.965 442.085 198.574 441.522C199.184 440.948 199.969 440.661 200.93 440.661C201.902 440.661 202.688 440.948 203.285 441.522C203.895 442.085 204.199 442.788 204.199 443.632C204.199 444.475 203.895 445.184 203.285 445.759C202.688 446.321 201.902 446.602 200.93 446.602C199.969 446.602 199.184 446.321 198.574 445.759C197.965 445.184 197.66 444.475 197.66 443.632ZM197.66 429.604C197.66 428.761 197.965 428.057 198.574 427.495C199.184 426.921 199.969 426.634 200.93 426.634C201.902 426.634 202.688 426.921 203.285 427.495C203.895 428.057 204.199 428.761 204.199 429.604C204.199 430.448 203.895 431.157 203.285 431.731C202.688 432.294 201.902 432.575 200.93 432.575C199.969 432.575 199.184 432.294 198.574 431.731C197.965 431.157 197.66 430.448 197.66 429.604ZM225.768 431.274V435.95C225.768 437.79 225.551 439.39 225.117 440.749C224.695 442.108 224.086 443.233 223.289 444.124C222.504 445.015 221.566 445.677 220.477 446.11C219.387 446.544 218.186 446.761 216.873 446.761C215.818 446.761 214.834 446.626 213.92 446.356C213.006 446.075 212.18 445.653 211.441 445.091C210.715 444.516 210.088 443.802 209.561 442.946C209.033 442.091 208.629 441.083 208.348 439.923C208.066 438.751 207.926 437.427 207.926 435.95V431.274C207.926 429.423 208.137 427.823 208.559 426.475C208.992 425.116 209.607 423.991 210.404 423.1C211.201 422.21 212.145 421.548 213.234 421.114C214.324 420.681 215.525 420.464 216.838 420.464C217.893 420.464 218.871 420.604 219.773 420.886C220.688 421.155 221.514 421.577 222.252 422.151C222.99 422.714 223.617 423.423 224.133 424.278C224.66 425.134 225.064 426.147 225.346 427.319C225.627 428.479 225.768 429.798 225.768 431.274ZM219.844 436.671V430.518C219.844 429.698 219.797 428.983 219.703 428.374C219.621 427.765 219.492 427.249 219.316 426.827C219.152 426.405 218.947 426.065 218.701 425.807C218.455 425.538 218.174 425.345 217.857 425.227C217.553 425.099 217.213 425.034 216.838 425.034C216.369 425.034 215.947 425.134 215.572 425.333C215.209 425.52 214.898 425.825 214.641 426.247C214.383 426.669 214.184 427.231 214.043 427.934C213.914 428.638 213.85 429.499 213.85 430.518V436.671C213.85 437.503 213.891 438.229 213.973 438.85C214.066 439.46 214.195 439.981 214.359 440.415C214.535 440.837 214.746 441.182 214.992 441.452C215.238 441.71 215.52 441.897 215.836 442.015C216.152 442.132 216.498 442.19 216.873 442.19C217.33 442.19 217.74 442.097 218.104 441.909C218.467 441.722 218.777 441.417 219.035 440.995C219.305 440.561 219.504 439.993 219.633 439.29C219.773 438.575 219.844 437.702 219.844 436.671ZM246.65 431.274V435.95C246.65 437.79 246.434 439.39 246 440.749C245.578 442.108 244.969 443.233 244.172 444.124C243.387 445.015 242.449 445.677 241.359 446.11C240.27 446.544 239.068 446.761 237.756 446.761C236.701 446.761 235.717 446.626 234.803 446.356C233.889 446.075 233.062 445.653 232.324 445.091C231.598 444.516 230.971 443.802 230.443 442.946C229.916 442.091 229.512 441.083 229.23 439.923C228.949 438.751 228.809 437.427 228.809 435.95V431.274C228.809 429.423 229.02 427.823 229.441 426.475C229.875 425.116 230.49 423.991 231.287 423.1C232.084 422.21 233.027 421.548 234.117 421.114C235.207 420.681 236.408 420.464 237.721 420.464C238.775 420.464 239.754 420.604 240.656 420.886C241.57 421.155 242.396 421.577 243.135 422.151C243.873 422.714 244.5 423.423 245.016 424.278C245.543 425.134 245.947 426.147 246.229 427.319C246.51 428.479 246.65 429.798 246.65 431.274ZM240.727 436.671V430.518C240.727 429.698 240.68 428.983 240.586 428.374C240.504 427.765 240.375 427.249 240.199 426.827C240.035 426.405 239.83 426.065 239.584 425.807C239.338 425.538 239.057 425.345 238.74 425.227C238.436 425.099 238.096 425.034 237.721 425.034C237.252 425.034 236.83 425.134 236.455 425.333C236.092 425.52 235.781 425.825 235.523 426.247C235.266 426.669 235.066 427.231 234.926 427.934C234.797 428.638 234.732 429.499 234.732 430.518V436.671C234.732 437.503 234.773 438.229 234.855 438.85C234.949 439.46 235.078 439.981 235.242 440.415C235.418 440.837 235.629 441.182 235.875 441.452C236.121 441.71 236.402 441.897 236.719 442.015C237.035 442.132 237.381 442.19 237.756 442.19C238.213 442.19 238.623 442.097 238.986 441.909C239.35 441.722 239.66 441.417 239.918 440.995C240.188 440.561 240.387 439.993 240.516 439.29C240.656 438.575 240.727 437.702 240.727 436.671Z" fill="#E1E1E6"/>
<g clip-path="url(#clip4_114_165)">
<path d="M311 458.909C324.807 458.909 336 447.716 336 433.909C336 420.102 324.807 408.909 311 408.909C297.193 408.909 286 420.102 286 433.909C286 447.716 297.193 458.909 311 458.909Z" fill="#F0F0F0"/>
<path d="M311 408.909C301.088 408.909 292.524 414.677 288.481 423.04H333.519C329.476 414.677 320.911 408.909 311 408.909Z" fill="#338AF3"/>
<path d="M311 458.909C320.911 458.909 329.476 453.141 333.519 444.779H288.481C292.524 453.141 301.088 458.909 311 458.909Z" fill="#338AF3"/>
<path d="M318.472 433.909L315.419 435.345L317.045 438.302L313.729 437.668L313.309 441.017L311 438.554L308.691 441.017L308.271 437.668L304.955 438.302L306.581 435.345L303.528 433.909L306.581 432.473L304.955 429.516L308.271 430.15L308.691 426.801L311 429.264L313.309 426.801L313.729 430.15L317.045 429.516L315.419 432.473L318.472 433.909Z" fill="#FFDA44"/>
</g>
<line x1="66.0024" y1="482.409" x2="336.001" y2="483.318" stroke="#323238"/>
<g clip-path="url(#clip5_114_165)">
<path d="M66 532.818C66 519.011 77.193 507.818 91 507.818C104.807 507.818 116 519.011 116 532.818L91 534.992L66 532.818Z" fill="#FFDA44"/>
<path d="M69.3453 545.318C73.6681 552.79 81.7466 557.818 91 557.818C100.253 557.818 108.332 552.79 112.655 545.318L91 543.688L69.3453 545.318Z" fill="#D80027"/>
<path d="M112.655 545.318C114.782 541.641 116 537.372 116 532.818H66C66 537.372 67.2182 541.641 69.3453 545.318H112.655Z" fill="#0052B4"/>
</g>
<path d="M173.262 540.748V545.318H155.402V541.451L163.629 532.803C164.355 531.971 164.941 531.226 165.387 530.57C165.832 529.902 166.154 529.299 166.354 528.76C166.564 528.221 166.67 527.734 166.67 527.301C166.67 526.562 166.559 525.947 166.336 525.455C166.125 524.951 165.809 524.57 165.387 524.312C164.977 524.055 164.467 523.926 163.857 523.926C163.248 523.926 162.715 524.101 162.258 524.453C161.801 524.805 161.443 525.285 161.186 525.894C160.939 526.504 160.816 527.189 160.816 527.951H154.875C154.875 526.381 155.256 524.945 156.018 523.644C156.791 522.344 157.863 521.306 159.234 520.533C160.605 519.748 162.193 519.355 163.998 519.355C165.885 519.355 167.467 519.648 168.744 520.234C170.021 520.82 170.982 521.67 171.627 522.783C172.283 523.885 172.611 525.215 172.611 526.773C172.611 527.664 172.471 528.519 172.189 529.34C171.908 530.16 171.504 530.974 170.977 531.783C170.449 532.58 169.805 533.4 169.043 534.244C168.293 535.088 167.438 535.984 166.477 536.933L163.172 540.748H173.262ZM194.057 530.183V534.859C194.057 536.699 193.84 538.299 193.406 539.658C192.984 541.017 192.375 542.142 191.578 543.033C190.793 543.924 189.855 544.586 188.766 545.019C187.676 545.453 186.475 545.67 185.162 545.67C184.107 545.67 183.123 545.535 182.209 545.265C181.295 544.984 180.469 544.562 179.73 544C179.004 543.426 178.377 542.711 177.85 541.855C177.322 541 176.918 539.992 176.637 538.832C176.355 537.66 176.215 536.336 176.215 534.859V530.183C176.215 528.332 176.426 526.732 176.848 525.385C177.281 524.025 177.896 522.9 178.693 522.01C179.49 521.119 180.434 520.457 181.523 520.023C182.613 519.59 183.814 519.373 185.127 519.373C186.182 519.373 187.16 519.513 188.062 519.795C188.977 520.064 189.803 520.486 190.541 521.06C191.279 521.623 191.906 522.332 192.422 523.187C192.949 524.043 193.354 525.056 193.635 526.228C193.916 527.388 194.057 528.707 194.057 530.183ZM188.133 535.58V529.428C188.133 528.607 188.086 527.892 187.992 527.283C187.91 526.674 187.781 526.158 187.605 525.736C187.441 525.314 187.236 524.974 186.99 524.717C186.744 524.447 186.463 524.254 186.146 524.137C185.842 524.008 185.502 523.943 185.127 523.943C184.658 523.943 184.236 524.043 183.861 524.242C183.498 524.43 183.188 524.734 182.93 525.156C182.672 525.578 182.473 526.14 182.332 526.844C182.203 527.547 182.139 528.408 182.139 529.428V535.58C182.139 536.412 182.18 537.138 182.262 537.76C182.355 538.369 182.484 538.89 182.648 539.324C182.824 539.746 183.035 540.092 183.281 540.361C183.527 540.619 183.809 540.806 184.125 540.924C184.441 541.041 184.787 541.099 185.162 541.099C185.619 541.099 186.029 541.006 186.393 540.818C186.756 540.631 187.066 540.326 187.324 539.904C187.594 539.471 187.793 538.902 187.922 538.199C188.062 537.484 188.133 536.611 188.133 535.58ZM197.66 542.541C197.66 541.697 197.965 540.994 198.574 540.431C199.184 539.857 199.969 539.57 200.93 539.57C201.902 539.57 202.688 539.857 203.285 540.431C203.895 540.994 204.199 541.697 204.199 542.541C204.199 543.385 203.895 544.094 203.285 544.668C202.688 545.23 201.902 545.512 200.93 545.512C199.969 545.512 199.184 545.23 198.574 544.668C197.965 544.094 197.66 543.385 197.66 542.541ZM197.66 528.513C197.66 527.67 197.965 526.967 198.574 526.404C199.184 525.83 199.969 525.543 200.93 525.543C201.902 525.543 202.688 525.83 203.285 526.404C203.895 526.967 204.199 527.67 204.199 528.513C204.199 529.357 203.895 530.066 203.285 530.64C202.688 531.203 201.902 531.484 200.93 531.484C199.969 531.484 199.184 531.203 198.574 530.64C197.965 530.066 197.66 529.357 197.66 528.513ZM225.768 530.183V534.859C225.768 536.699 225.551 538.299 225.117 539.658C224.695 541.017 224.086 542.142 223.289 543.033C222.504 543.924 221.566 544.586 220.477 545.019C219.387 545.453 218.186 545.67 216.873 545.67C215.818 545.67 214.834 545.535 213.92 545.265C213.006 544.984 212.18 544.562 211.441 544C210.715 543.426 210.088 542.711 209.561 541.855C209.033 541 208.629 539.992 208.348 538.832C208.066 537.66 207.926 536.336 207.926 534.859V530.183C207.926 528.332 208.137 526.732 208.559 525.385C208.992 524.025 209.607 522.9 210.404 522.01C211.201 521.119 212.145 520.457 213.234 520.023C214.324 519.59 215.525 519.373 216.838 519.373C217.893 519.373 218.871 519.513 219.773 519.795C220.688 520.064 221.514 520.486 222.252 521.06C222.99 521.623 223.617 522.332 224.133 523.187C224.66 524.043 225.064 525.056 225.346 526.228C225.627 527.388 225.768 528.707 225.768 530.183ZM219.844 535.58V529.428C219.844 528.607 219.797 527.892 219.703 527.283C219.621 526.674 219.492 526.158 219.316 525.736C219.152 525.314 218.947 524.974 218.701 524.717C218.455 524.447 218.174 524.254 217.857 524.137C217.553 524.008 217.213 523.943 216.838 523.943C216.369 523.943 215.947 524.043 215.572 524.242C215.209 524.43 214.898 524.734 214.641 525.156C214.383 525.578 214.184 526.14 214.043 526.844C213.914 527.547 213.85 528.408 213.85 529.428V535.58C213.85 536.412 213.891 537.138 213.973 537.76C214.066 538.369 214.195 538.89 214.359 539.324C214.535 539.746 214.746 540.092 214.992 540.361C215.238 540.619 215.52 540.806 215.836 540.924C216.152 541.041 216.498 541.099 216.873 541.099C217.33 541.099 217.74 541.006 218.104 540.818C218.467 540.631 218.777 540.326 219.035 539.904C219.305 539.471 219.504 538.902 219.633 538.199C219.773 537.484 219.844 536.611 219.844 535.58ZM246.65 530.183V534.859C246.65 536.699 246.434 538.299 246 539.658C245.578 541.017 244.969 542.142 244.172 543.033C243.387 543.924 242.449 544.586 241.359 545.019C240.27 545.453 239.068 545.67 237.756 545.67C236.701 545.67 235.717 545.535 234.803 545.265C233.889 544.984 233.062 544.562 232.324 544C231.598 543.426 230.971 542.711 230.443 541.855C229.916 541 229.512 539.992 229.23 538.832C228.949 537.66 228.809 536.336 228.809 534.859V530.183C228.809 528.332 229.02 526.732 229.441 525.385C229.875 524.025 230.49 522.9 231.287 522.01C232.084 521.119 233.027 520.457 234.117 520.023C235.207 519.59 236.408 519.373 237.721 519.373C238.775 519.373 239.754 519.513 240.656 519.795C241.57 520.064 242.396 520.486 243.135 521.06C243.873 521.623 244.5 522.332 245.016 523.187C245.543 524.043 245.947 525.056 246.229 526.228C246.51 527.388 246.65 528.707 246.65 530.183ZM240.727 535.58V529.428C240.727 528.607 240.68 527.892 240.586 527.283C240.504 526.674 240.375 526.158 240.199 525.736C240.035 525.314 239.83 524.974 239.584 524.717C239.338 524.447 239.057 524.254 238.74 524.137C238.436 524.008 238.096 523.943 237.721 523.943C237.252 523.943 236.83 524.043 236.455 524.242C236.092 524.43 235.781 524.734 235.523 525.156C235.266 525.578 235.066 526.14 234.926 526.844C234.797 527.547 234.732 528.408 234.732 529.428V535.58C234.732 536.412 234.773 537.138 234.855 537.76C234.949 538.369 235.078 538.89 235.242 539.324C235.418 539.746 235.629 540.092 235.875 540.361C236.121 540.619 236.402 540.806 236.719 540.924C237.035 541.041 237.381 541.099 237.756 541.099C238.213 541.099 238.623 541.006 238.986 540.818C239.35 540.631 239.66 540.326 239.918 539.904C240.188 539.471 240.387 538.902 240.516 538.199C240.656 537.484 240.727 536.611 240.727 535.58Z" fill="#E1E1E6"/>
<g clip-path="url(#clip6_114_165)">
<path d="M311 557.818C324.807 557.818 336 546.625 336 532.818C336 519.011 324.807 507.818 311 507.818C297.193 507.818 286 519.011 286 532.818C286 546.625 297.193 557.818 311 557.818Z" fill="#F0F0F0"/>
<path d="M311 543.688C317.003 543.688 321.87 538.821 321.87 532.818C321.87 526.815 317.003 521.949 311 521.949C304.997 521.949 300.13 526.815 300.13 532.818C300.13 538.821 304.997 543.688 311 543.688Z" fill="#D80027"/>
</g>
<path d="M43 179H359H43ZM359 583.818C359 588.236 355.418 591.818 351 591.818H51C46.5817 591.818 43 588.236 43 583.818C43 586.027 45.6863 587.818 49 587.818H353C356.314 587.818 359 586.027 359 583.818ZM43 589.818V179V589.818ZM359 179V589.818V179Z" fill="#F7DD43" mask="url(#path-2-inside-1_114_165)"/>
<mask id="path-33-inside-2_114_165" fill="white">
<path d="M43 627.818C43 624.504 45.6863 621.818 49 621.818H353C356.314 621.818 359 624.504 359 627.818V1026.64C359 1029.95 356.314 1032.64 353 1032.64H49C45.6863 1032.64 43 1029.95 43 1026.64V627.818Z"/>
</mask>
<path d="M43 627.818C43 624.504 45.6863 621.818 49 621.818H353C356.314 621.818 359 624.504 359 627.818V1026.64C359 1029.95 356.314 1032.64 353 1032.64H49C45.6863 1032.64 43 1029.95 43 1026.64V627.818Z" fill="#1D1C19"/>
<path d="M148.812 682.181V684.818H137.141V682.568L142.66 676.65C143.215 676.033 143.652 675.49 143.973 675.021C144.293 674.545 144.523 674.119 144.664 673.744C144.812 673.361 144.887 672.998 144.887 672.654C144.887 672.138 144.801 671.697 144.629 671.33C144.457 670.955 144.203 670.666 143.867 670.463C143.539 670.26 143.133 670.158 142.648 670.158C142.133 670.158 141.688 670.283 141.312 670.533C140.945 670.783 140.664 671.131 140.469 671.576C140.281 672.021 140.188 672.525 140.188 673.088H136.801C136.801 672.072 137.043 671.142 137.527 670.299C138.012 669.447 138.695 668.771 139.578 668.271C140.461 667.763 141.508 667.51 142.719 667.51C143.914 667.51 144.922 667.705 145.742 668.096C146.57 668.478 147.195 669.033 147.617 669.76C148.047 670.478 148.262 671.338 148.262 672.338C148.262 672.9 148.172 673.451 147.992 673.99C147.812 674.521 147.555 675.053 147.219 675.584C146.891 676.107 146.492 676.638 146.023 677.178C145.555 677.717 145.035 678.275 144.465 678.853L141.5 682.181H148.812ZM162.875 678.443V681.092H150.582L150.418 679.041L157.531 667.756H160.215L157.309 672.619L153.77 678.443H162.875ZM160.941 667.756V684.818H157.566V667.756H160.941ZM172.133 667.756L165.875 686.283H163.367L169.625 667.756H172.133ZM181.836 667.721V684.818H178.461V671.611L174.406 672.9V670.24L181.473 667.721H181.836ZM195.617 667.721V684.818H192.242V671.611L188.188 672.9V670.24L195.254 667.721H195.617Z" fill="#F7DD43"/>
<path d="M222.296 680.342L224.989 682.474L223.697 683.596L221.045 681.463L222.296 680.342ZM225.058 676.609V677.081C225.058 677.837 224.955 678.516 224.75 679.118C224.549 679.72 224.26 680.232 223.882 680.656C223.504 681.075 223.057 681.397 222.542 681.62C222.027 681.843 221.455 681.955 220.826 681.955C220.202 681.955 219.63 681.843 219.11 681.62C218.591 681.397 218.142 681.075 217.764 680.656C217.385 680.232 217.091 679.72 216.882 679.118C216.677 678.516 216.574 677.837 216.574 677.081V676.609C216.574 675.848 216.677 675.169 216.882 674.572C217.091 673.971 217.383 673.458 217.757 673.034C218.131 672.61 218.577 672.287 219.097 672.063C219.616 671.84 220.188 671.728 220.812 671.728C221.441 671.728 222.013 671.84 222.528 672.063C223.048 672.287 223.497 672.61 223.875 673.034C224.253 673.458 224.545 673.971 224.75 674.572C224.955 675.169 225.058 675.848 225.058 676.609ZM222.986 677.081V676.596C222.986 676.067 222.936 675.602 222.836 675.201C222.74 674.8 222.599 674.463 222.412 674.189C222.23 673.916 222.004 673.711 221.735 673.574C221.466 673.433 221.159 673.362 220.812 673.362C220.466 673.362 220.159 673.433 219.89 673.574C219.621 673.711 219.395 673.916 219.213 674.189C219.031 674.463 218.892 674.8 218.796 675.201C218.7 675.602 218.652 676.067 218.652 676.596V677.081C218.652 677.605 218.7 678.07 218.796 678.475C218.892 678.876 219.031 679.216 219.213 679.494C219.4 679.767 219.628 679.975 219.896 680.116C220.17 680.257 220.48 680.328 220.826 680.328C221.173 680.328 221.478 680.257 221.742 680.116C222.011 679.975 222.237 679.767 222.419 679.494C222.606 679.216 222.747 678.876 222.843 678.475C222.938 678.07 222.986 677.605 222.986 677.081ZM232.037 671.865H234.081V678.441C234.081 679.207 233.917 679.852 233.589 680.376C233.265 680.9 232.816 681.294 232.242 681.558C231.673 681.823 231.016 681.955 230.273 681.955C229.531 681.955 228.87 681.823 228.291 681.558C227.717 681.294 227.266 680.9 226.938 680.376C226.614 679.852 226.452 679.207 226.452 678.441V671.865H228.503V678.441C228.503 678.888 228.574 679.252 228.715 679.535C228.856 679.818 229.059 680.025 229.323 680.157C229.592 680.289 229.909 680.355 230.273 680.355C230.647 680.355 230.964 680.289 231.224 680.157C231.488 680.025 231.688 679.818 231.825 679.535C231.966 679.252 232.037 678.888 232.037 678.441V671.865ZM237.95 671.865V681.818H235.906V671.865H237.95ZM247.972 671.865V681.818H245.921L241.922 675.146V681.818H239.871V671.865H241.922L245.928 678.544V671.865H247.972ZM254.001 671.865V681.818H251.957V671.865H254.001ZM257.063 671.865V673.471H248.942V671.865H257.063ZM261.541 673.567L258.834 681.818H256.653L260.352 671.865H261.739L261.541 673.567ZM263.79 681.818L261.076 673.567L260.857 671.865H262.259L265.978 681.818H263.79ZM263.667 678.113V679.72H258.41V678.113H263.667Z" fill="#E1E1E6"/>
<rect x="119.5" y="654.318" width="163" height="45" rx="5.5" stroke="#746615"/>
<g clip-path="url(#clip7_114_165)">
<path d="M66 777.818C66 764.011 77.193 752.818 91 752.818C104.807 752.818 116 764.011 116 777.818H66Z" fill="#F0F0F0"/>
<path d="M84.4782 776.451L83.1115 777.818H84.4782V776.451Z" fill="#0052B4"/>
<path d="M97.5218 776.452V777.818H98.8884L97.5218 776.452Z" fill="#0052B4"/>
<path d="M66.7213 771.84C66.2511 773.756 66 775.757 66 777.818H73.8884L79.8665 771.84H66.7213Z" fill="#0052B4"/>
<path d="M102.133 771.84L108.111 777.818H116C116 775.757 115.749 773.756 115.279 771.84H102.133Z" fill="#0052B4"/>
<path d="M100.596 771.84H97.5218L103.5 777.818H106.574L100.596 771.84Z" fill="#D80027"/>
<path d="M84.4782 774.914V771.84H84.478L78.4999 777.818H81.5743L84.4782 774.914Z" fill="#D80027"/>
<path d="M77.7111 756.641C76.6807 757.289 75.7009 758.01 74.7789 758.796H79.8668L77.7111 756.641Z" fill="#0052B4"/>
<path d="M107.221 758.796C106.299 758.009 105.319 757.289 104.289 756.641L102.133 758.796H107.221Z" fill="#0052B4"/>
<path d="M94.2608 768.579H114.236C113.291 766.204 111.992 764.009 110.405 762.057H94.2609H94.2608V753.03C93.1935 752.891 92.1052 752.818 91 752.818C89.8946 752.818 88.8065 752.891 87.7392 753.03V762.057V762.057H71.5949C70.0077 764.009 68.7087 766.204 67.7636 768.579H87.739H87.7391V777.818H94.2608V768.579V768.579Z" fill="#D80027"/>
<path d="M84.4782 758.796V758.796L80.7094 755.027C80.0126 755.342 79.3335 755.69 78.6727 756.065L81.404 758.796H84.4782Z" fill="#D80027"/>
<path d="M97.5218 758.796L101.291 755.027C100.574 754.703 99.8388 754.413 99.0878 754.156L97.5218 755.722V758.796Z" fill="#D80027"/>
<path d="M116 777.818C116 791.625 104.807 802.818 91 802.818C77.193 802.818 66 791.625 66 777.818H116Z" fill="#F0F0F0"/>
<path d="M111.833 781.007C109.75 781.007 109.75 779.102 107.666 779.102C105.583 779.102 105.583 781.007 103.5 781.007C101.417 781.007 101.417 779.102 99.3333 779.102C97.25 779.102 97.25 781.007 95.1666 781.007C93.0832 781.007 93.0831 779.102 90.9996 779.102C88.9163 779.102 88.9163 781.007 86.8331 781.007C84.7501 781.007 84.7501 779.102 82.6668 779.102C80.5833 779.102 80.5833 781.007 78.4998 781.007C76.4163 781.007 76.4163 779.102 74.3328 779.102C72.2498 779.102 72.2498 781.007 70.1665 781.007C68.0944 781.007 68.0824 779.123 66.0325 779.103C66.0902 780.246 66.2268 781.369 66.4332 782.467C68.0938 782.711 68.2392 784.34 70.1666 784.34C72.2499 784.34 72.2499 782.435 74.3329 782.435C76.4164 782.435 76.4164 784.34 78.4999 784.34C80.5834 784.34 80.5834 782.435 82.6669 782.435C84.7502 782.435 84.7502 784.34 86.8332 784.34C88.9165 784.34 88.9165 782.435 90.9997 782.435C93.0832 782.435 93.0832 784.34 95.1667 784.34C97.2502 784.34 97.2502 782.435 99.3334 782.435C101.417 782.435 101.417 784.34 103.5 784.34C105.583 784.34 105.583 782.435 107.666 782.435C109.75 782.435 109.75 784.34 111.833 784.34C113.761 784.34 113.906 782.711 115.567 782.467C115.773 781.369 115.91 780.246 115.968 779.103C113.917 779.123 113.905 781.007 111.833 781.007Z" fill="#0052B4"/>
<path d="M107.666 785.623C105.583 785.623 105.583 787.528 103.5 787.528C101.417 787.528 101.417 785.623 99.3333 785.623C97.25 785.623 97.25 787.528 95.1666 787.528C93.0831 787.528 93.0831 785.623 90.9996 785.623C88.9163 785.623 88.9163 787.528 86.8331 787.528C84.7501 787.528 84.7501 785.623 82.6668 785.623C80.5833 785.623 80.5833 787.528 78.4998 787.528C76.4163 787.528 76.4163 785.623 74.3328 785.623C72.2498 785.623 72.2498 787.528 70.1665 787.528C68.6779 787.528 68.2527 786.556 67.3714 786.001C67.9581 787.696 68.7214 789.308 69.6406 790.816C69.8005 790.845 69.9745 790.862 70.1665 790.862C72.2498 790.862 72.2498 788.957 74.3328 788.957C76.4163 788.957 76.4163 790.862 78.4998 790.862C80.5833 790.862 80.5833 788.957 82.6668 788.957C84.7501 788.957 84.7501 790.862 86.8331 790.862C88.9164 790.862 88.9164 788.957 90.9996 788.957C93.0831 788.957 93.0831 790.862 95.1666 790.862C97.2501 790.862 97.2501 788.957 99.3333 788.957C101.417 788.957 101.417 790.862 103.5 790.862C105.583 790.862 105.583 788.957 107.666 788.957C109.75 788.957 109.75 790.862 111.833 790.862C112.025 790.862 112.199 790.845 112.359 790.816C113.278 789.308 114.042 787.696 114.629 786.001C113.747 786.556 113.322 787.528 111.833 787.528C109.75 787.528 109.75 785.623 107.666 785.623Z" fill="#0052B4"/>
<path d="M115.987 777.033C115.989 777.102 115.991 777.172 115.993 777.241C115.991 777.172 115.989 777.102 115.987 777.033Z" fill="#F0F0F0"/>
<path d="M66.0073 777.241C66.009 777.172 66.0113 777.102 66.0135 777.033C66.0114 777.102 66.0089 777.172 66.0073 777.241Z" fill="#F0F0F0"/>
<path d="M66 777.818C66 777.625 66.0029 777.433 66.0073 777.241C66.0028 777.433 66 777.625 66 777.818Z" fill="#F0F0F0"/>
<path d="M66 777.818C66 778.273 66.0129 778.726 66.0372 779.175C68.0824 779.198 68.096 781.079 70.1666 781.079C72.2499 781.079 72.2499 779.174 74.3329 779.174C76.4164 779.174 76.4164 781.079 78.4999 781.079C80.5834 781.079 80.5834 779.174 82.6669 779.174C84.7502 779.174 84.7502 781.079 86.8332 781.079C88.9165 781.079 88.9165 779.174 90.9997 779.174C93.0832 779.174 93.0832 781.079 95.1667 781.079C97.2502 781.079 97.2502 779.174 99.3334 779.174C101.417 779.174 101.417 781.079 103.5 781.079C105.583 781.079 105.583 779.174 107.666 779.174C109.75 779.174 109.75 781.079 111.833 781.079C113.904 781.079 113.917 779.198 115.963 779.175C115.987 778.726 116 778.273 116 777.818H66Z" fill="#F0F0F0"/>
<path d="M115.993 777.241C115.997 777.433 116 777.625 116 777.818C116 777.625 115.997 777.433 115.993 777.241Z" fill="#F0F0F0"/>
<path d="M107.666 792.145C105.583 792.145 105.583 794.05 103.5 794.05C101.417 794.05 101.417 792.145 99.3333 792.145C97.25 792.145 97.25 794.05 95.1666 794.05C93.0831 794.05 93.0831 792.145 90.9996 792.145C88.9163 792.145 88.9163 794.05 86.8331 794.05C84.7501 794.05 84.7501 792.145 82.6668 792.145C80.5833 792.145 80.5833 794.05 78.4998 794.05C76.4163 794.05 76.4163 792.145 74.3328 792.145C72.8939 792.145 72.4487 793.054 71.6245 793.616C73.8109 796.294 76.5424 798.509 79.6483 800.096L91 799.524L102.352 800.096C105.457 798.509 108.189 796.294 110.375 793.616C109.551 793.054 109.105 792.145 107.666 792.145Z" fill="#0052B4"/>
<path d="M104.866 792.741L97.2606 794.196L96.2971 786.514L91 792.164L85.7031 786.514L84.7393 794.196L77.1347 792.741L80.8641 799.524L79.6461 800.096C83.0531 801.837 86.9118 802.818 91 802.818C95.0882 802.818 98.9469 801.837 102.354 800.097L101.136 799.524L104.866 792.741Z" fill="#FFDA44"/>
</g>
<path d="M173.174 775.183V779.859C173.174 781.699 172.957 783.299 172.523 784.658C172.102 786.017 171.492 787.142 170.695 788.033C169.91 788.924 168.973 789.586 167.883 790.019C166.793 790.453 165.592 790.67 164.279 790.67C163.225 790.67 162.24 790.535 161.326 790.265C160.412 789.984 159.586 789.562 158.848 789C158.121 788.426 157.494 787.711 156.967 786.855C156.439 786 156.035 784.992 155.754 783.832C155.473 782.66 155.332 781.336 155.332 779.859V775.183C155.332 773.332 155.543 771.732 155.965 770.385C156.398 769.025 157.014 767.9 157.811 767.01C158.607 766.119 159.551 765.457 160.641 765.023C161.73 764.59 162.932 764.373 164.244 764.373C165.299 764.373 166.277 764.513 167.18 764.795C168.094 765.064 168.92 765.486 169.658 766.06C170.396 766.623 171.023 767.332 171.539 768.187C172.066 769.043 172.471 770.056 172.752 771.228C173.033 772.388 173.174 773.707 173.174 775.183ZM167.25 780.58V774.427C167.25 773.607 167.203 772.892 167.109 772.283C167.027 771.674 166.898 771.158 166.723 770.736C166.559 770.314 166.354 769.974 166.107 769.717C165.861 769.447 165.58 769.254 165.264 769.136C164.959 769.008 164.619 768.943 164.244 768.943C163.775 768.943 163.354 769.043 162.979 769.242C162.615 769.429 162.305 769.734 162.047 770.156C161.789 770.578 161.59 771.14 161.449 771.844C161.32 772.547 161.256 773.408 161.256 774.427V780.58C161.256 781.412 161.297 782.138 161.379 782.76C161.473 783.369 161.602 783.89 161.766 784.324C161.941 784.746 162.152 785.092 162.398 785.361C162.645 785.619 162.926 785.806 163.242 785.924C163.559 786.041 163.904 786.099 164.279 786.099C164.736 786.099 165.146 786.006 165.51 785.818C165.873 785.631 166.184 785.326 166.441 784.904C166.711 784.47 166.91 783.902 167.039 783.199C167.18 782.484 167.25 781.611 167.25 780.58ZM194.057 783.269C194.057 784.898 193.67 786.263 192.896 787.365C192.135 788.467 191.08 789.293 189.732 789.844C188.396 790.394 186.873 790.67 185.162 790.67C183.463 790.67 181.934 790.394 180.574 789.844C179.227 789.293 178.16 788.467 177.375 787.365C176.59 786.263 176.197 784.898 176.197 783.269C176.197 782.156 176.42 781.16 176.865 780.281C177.322 779.39 177.955 778.635 178.764 778.013C179.572 777.392 180.516 776.918 181.594 776.59C182.684 776.261 183.861 776.097 185.127 776.097C186.838 776.097 188.367 776.39 189.715 776.976C191.062 777.551 192.123 778.371 192.896 779.437C193.67 780.504 194.057 781.781 194.057 783.269ZM188.098 782.795C188.098 782.092 187.975 781.5 187.729 781.019C187.482 780.527 187.137 780.152 186.691 779.894C186.246 779.636 185.725 779.508 185.127 779.508C184.541 779.508 184.02 779.636 183.562 779.894C183.117 780.152 182.766 780.527 182.508 781.019C182.262 781.5 182.139 782.092 182.139 782.795C182.139 783.474 182.268 784.066 182.525 784.57C182.783 785.062 183.135 785.443 183.58 785.713C184.037 785.97 184.564 786.099 185.162 786.099C185.76 786.099 186.275 785.97 186.709 785.713C187.154 785.443 187.494 785.062 187.729 784.57C187.975 784.066 188.098 783.474 188.098 782.795ZM193.529 771.562C193.529 772.898 193.172 774.07 192.457 775.078C191.754 776.074 190.77 776.853 189.504 777.416C188.25 777.967 186.803 778.242 185.162 778.242C183.533 778.242 182.08 777.967 180.803 777.416C179.537 776.853 178.541 776.074 177.814 775.078C177.1 774.07 176.742 772.898 176.742 771.562C176.742 769.992 177.1 768.674 177.814 767.607C178.541 766.541 179.537 765.732 180.803 765.181C182.068 764.631 183.51 764.355 185.127 764.355C186.768 764.355 188.221 764.631 189.486 765.181C190.752 765.732 191.742 766.541 192.457 767.607C193.172 768.674 193.529 769.992 193.529 771.562ZM187.605 771.879C187.605 771.269 187.512 770.748 187.324 770.314C187.137 769.869 186.861 769.529 186.498 769.295C186.135 769.049 185.678 768.926 185.127 768.926C184.6 768.926 184.154 769.043 183.791 769.277C183.428 769.511 183.152 769.851 182.965 770.297C182.777 770.73 182.684 771.258 182.684 771.879C182.684 772.488 182.777 773.021 182.965 773.478C183.152 773.935 183.428 774.293 183.791 774.551C184.166 774.808 184.623 774.937 185.162 774.937C185.713 774.937 186.164 774.808 186.516 774.551C186.879 774.293 187.148 773.935 187.324 773.478C187.512 773.021 187.605 772.488 187.605 771.879ZM197.66 787.541C197.66 786.697 197.965 785.994 198.574 785.431C199.184 784.857 199.969 784.57 200.93 784.57C201.902 784.57 202.688 784.857 203.285 785.431C203.895 785.994 204.199 786.697 204.199 787.541C204.199 788.385 203.895 789.094 203.285 789.668C202.688 790.23 201.902 790.511 200.93 790.511C199.969 790.511 199.184 790.23 198.574 789.668C197.965 789.094 197.66 788.385 197.66 787.541ZM197.66 773.513C197.66 772.67 197.965 771.967 198.574 771.404C199.184 770.83 199.969 770.543 200.93 770.543C201.902 770.543 202.688 770.83 203.285 771.404C203.895 771.967 204.199 772.67 204.199 773.513C204.199 774.357 203.895 775.066 203.285 775.64C202.688 776.203 201.902 776.484 200.93 776.484C199.969 776.484 199.184 776.203 198.574 775.64C197.965 775.066 197.66 774.357 197.66 773.513ZM225.768 775.183V779.859C225.768 781.699 225.551 783.299 225.117 784.658C224.695 786.017 224.086 787.142 223.289 788.033C222.504 788.924 221.566 789.586 220.477 790.019C219.387 790.453 218.186 790.67 216.873 790.67C215.818 790.67 214.834 790.535 213.92 790.265C213.006 789.984 212.18 789.562 211.441 789C210.715 788.426 210.088 787.711 209.561 786.855C209.033 786 208.629 784.992 208.348 783.832C208.066 782.66 207.926 781.336 207.926 779.859V775.183C207.926 773.332 208.137 771.732 208.559 770.385C208.992 769.025 209.607 767.9 210.404 767.01C211.201 766.119 212.145 765.457 213.234 765.023C214.324 764.59 215.525 764.373 216.838 764.373C217.893 764.373 218.871 764.513 219.773 764.795C220.688 765.064 221.514 765.486 222.252 766.06C222.99 766.623 223.617 767.332 224.133 768.187C224.66 769.043 225.064 770.056 225.346 771.228C225.627 772.388 225.768 773.707 225.768 775.183ZM219.844 780.58V774.427C219.844 773.607 219.797 772.892 219.703 772.283C219.621 771.674 219.492 771.158 219.316 770.736C219.152 770.314 218.947 769.974 218.701 769.717C218.455 769.447 218.174 769.254 217.857 769.136C217.553 769.008 217.213 768.943 216.838 768.943C216.369 768.943 215.947 769.043 215.572 769.242C215.209 769.429 214.898 769.734 214.641 770.156C214.383 770.578 214.184 771.14 214.043 771.844C213.914 772.547 213.85 773.408 213.85 774.427V780.58C213.85 781.412 213.891 782.138 213.973 782.76C214.066 783.369 214.195 783.89 214.359 784.324C214.535 784.746 214.746 785.092 214.992 785.361C215.238 785.619 215.52 785.806 215.836 785.924C216.152 786.041 216.498 786.099 216.873 786.099C217.33 786.099 217.74 786.006 218.104 785.818C218.467 785.631 218.777 785.326 219.035 784.904C219.305 784.47 219.504 783.902 219.633 783.199C219.773 782.484 219.844 781.611 219.844 780.58ZM246.65 775.183V779.859C246.65 781.699 246.434 783.299 246 784.658C245.578 786.017 244.969 787.142 244.172 788.033C243.387 788.924 242.449 789.586 241.359 790.019C240.27 790.453 239.068 790.67 237.756 790.67C236.701 790.67 235.717 790.535 234.803 790.265C233.889 789.984 233.062 789.562 232.324 789C231.598 788.426 230.971 787.711 230.443 786.855C229.916 786 229.512 784.992 229.23 783.832C228.949 782.66 228.809 781.336 228.809 779.859V775.183C228.809 773.332 229.02 771.732 229.441 770.385C229.875 769.025 230.49 767.9 231.287 767.01C232.084 766.119 233.027 765.457 234.117 765.023C235.207 764.59 236.408 764.373 237.721 764.373C238.775 764.373 239.754 764.513 240.656 764.795C241.57 765.064 242.396 765.486 243.135 766.06C243.873 766.623 244.5 767.332 245.016 768.187C245.543 769.043 245.947 770.056 246.229 771.228C246.51 772.388 246.65 773.707 246.65 775.183ZM240.727 780.58V774.427C240.727 773.607 240.68 772.892 240.586 772.283C240.504 771.674 240.375 771.158 240.199 770.736C240.035 770.314 239.83 769.974 239.584 769.717C239.338 769.447 239.057 769.254 238.74 769.136C238.436 769.008 238.096 768.943 237.721 768.943C237.252 768.943 236.83 769.043 236.455 769.242C236.092 769.429 235.781 769.734 235.523 770.156C235.266 770.578 235.066 771.14 234.926 771.844C234.797 772.547 234.732 773.408 234.732 774.427V780.58C234.732 781.412 234.773 782.138 234.855 782.76C234.949 783.369 235.078 783.89 235.242 784.324C235.418 784.746 235.629 785.092 235.875 785.361C236.121 785.619 236.402 785.806 236.719 785.924C237.035 786.041 237.381 786.099 237.756 786.099C238.213 786.099 238.623 786.006 238.986 785.818C239.35 785.631 239.66 785.326 239.918 784.904C240.188 784.47 240.387 783.902 240.516 783.199C240.656 782.484 240.727 781.611 240.727 780.58Z" fill="#E1E1E6"/>
<g clip-path="url(#clip8_114_165)">
<path d="M321.87 755.299C318.583 753.71 314.896 752.818 311 752.818C307.104 752.818 303.417 753.71 300.13 755.299L297.957 777.818L300.13 800.337C303.417 801.927 307.104 802.818 311 802.818C314.896 802.818 318.583 801.927 321.87 800.337L324.043 777.818L321.87 755.299Z" fill="#D80027"/>
<path d="M311 769.123L313.158 775.765H320.143L314.492 779.871L316.651 786.514L311 782.408L305.349 786.514L307.508 779.871L301.857 775.765H308.841L311 769.123Z" fill="#FFDA44"/>
<path d="M300.13 755.3C291.768 759.343 286 767.907 286 777.818C286 787.73 291.768 796.293 300.13 800.337V755.3Z" fill="#496E2D"/>
<path d="M321.87 755.3V800.337C330.232 796.293 336 787.73 336 777.818C336 767.907 330.232 759.343 321.87 755.3Z" fill="#FFDA44"/>
</g>
<line x1="66.0024" y1="826.318" x2="336.001" y2="827.227" stroke="#323238"/>
<g clip-path="url(#clip9_114_165)">
<path d="M91 901.727C104.807 901.727 116 890.534 116 876.727C116 862.92 104.807 851.727 91 851.727C77.1929 851.727 66 862.92 66 876.727C66 890.534 77.1929 901.727 91 901.727Z" fill="#F0F0F0"/>
<path d="M91 851.727C81.0885 851.727 72.5244 857.495 68.4807 865.858H113.519C109.476 857.495 100.911 851.727 91 851.727Z" fill="#FF9811"/>
<path d="M91 901.727C100.911 901.727 109.476 895.959 113.519 887.597H68.4807C72.5244 895.959 81.0885 901.727 91 901.727Z" fill="#6DA544"/>
<path d="M91 885.423C95.8024 885.423 99.6956 881.53 99.6956 876.727C99.6956 871.925 95.8024 868.032 91 868.032C86.1975 868.032 82.3044 871.925 82.3044 876.727C82.3044 881.53 86.1975 885.423 91 885.423Z" fill="#0052B4"/>
<path d="M91 882.162C94.0015 882.162 96.4348 879.729 96.4348 876.727C96.4348 873.726 94.0015 871.292 91 871.292C87.9985 871.292 85.5652 873.726 85.5652 876.727C85.5652 879.729 87.9985 882.162 91 882.162Z" fill="#F0F0F0"/>
<path d="M91 870.021L92.6766 873.823L96.8079 873.374L94.3532 876.727L96.8079 880.08L92.6766 879.631L91 883.434L89.3233 879.631L85.1921 880.08L87.6468 876.727L85.1921 873.374L89.3233 873.823L91 870.021Z" fill="#0052B4"/>
</g>
<path d="M168.516 863.633V889.227H162.592V870.313L156.756 872.018V867.518L167.971 863.633H168.516ZM181.682 873.952H184.564C185.303 873.952 185.906 873.823 186.375 873.565C186.855 873.296 187.213 872.921 187.447 872.44C187.682 871.948 187.799 871.368 187.799 870.7C187.799 870.184 187.688 869.71 187.465 869.276C187.254 868.842 186.926 868.497 186.48 868.239C186.035 867.969 185.467 867.835 184.775 867.835C184.307 867.835 183.85 867.934 183.404 868.133C182.959 868.321 182.59 868.59 182.297 868.942C182.016 869.294 181.875 869.721 181.875 870.225H175.934C175.934 868.772 176.332 867.53 177.129 866.499C177.938 865.456 178.998 864.659 180.311 864.108C181.635 863.546 183.059 863.264 184.582 863.264C186.398 863.264 187.992 863.546 189.363 864.108C190.734 864.659 191.801 865.479 192.562 866.569C193.336 867.647 193.723 868.983 193.723 870.577C193.723 871.456 193.518 872.282 193.107 873.055C192.697 873.829 192.123 874.508 191.385 875.094C190.646 875.68 189.779 876.143 188.783 876.483C187.799 876.811 186.721 876.975 185.549 876.975H181.682V873.952ZM181.682 878.364V875.411H185.549C186.826 875.411 187.992 875.557 189.047 875.85C190.102 876.131 191.01 876.553 191.771 877.116C192.533 877.678 193.119 878.376 193.529 879.208C193.939 880.028 194.145 880.971 194.145 882.038C194.145 883.233 193.904 884.299 193.424 885.237C192.943 886.174 192.27 886.965 191.402 887.61C190.535 888.255 189.521 888.747 188.361 889.087C187.201 889.415 185.941 889.579 184.582 889.579C183.516 889.579 182.449 889.438 181.383 889.157C180.316 888.864 179.344 888.419 178.465 887.821C177.586 887.212 176.877 886.438 176.338 885.501C175.811 884.551 175.547 883.421 175.547 882.108H181.488C181.488 882.647 181.635 883.139 181.928 883.585C182.232 884.018 182.637 884.364 183.141 884.622C183.645 884.88 184.189 885.008 184.775 885.008C185.502 885.008 186.117 884.874 186.621 884.604C187.137 884.323 187.529 883.948 187.799 883.479C188.068 883.01 188.203 882.489 188.203 881.915C188.203 881.047 188.057 880.356 187.764 879.84C187.482 879.325 187.066 878.95 186.516 878.715C185.977 878.481 185.326 878.364 184.564 878.364H181.682ZM197.66 886.45C197.66 885.606 197.965 884.903 198.574 884.34C199.184 883.766 199.969 883.479 200.93 883.479C201.902 883.479 202.688 883.766 203.285 884.34C203.895 884.903 204.199 885.606 204.199 886.45C204.199 887.294 203.895 888.003 203.285 888.577C202.688 889.139 201.902 889.421 200.93 889.421C199.969 889.421 199.184 889.139 198.574 888.577C197.965 888.003 197.66 887.294 197.66 886.45ZM197.66 872.422C197.66 871.579 197.965 870.876 198.574 870.313C199.184 869.739 199.969 869.452 200.93 869.452C201.902 869.452 202.688 869.739 203.285 870.313C203.895 870.876 204.199 871.579 204.199 872.422C204.199 873.266 203.895 873.975 203.285 874.549C202.688 875.112 201.902 875.393 200.93 875.393C199.969 875.393 199.184 875.112 198.574 874.549C197.965 873.975 197.66 873.266 197.66 872.422ZM225.768 874.092V878.768C225.768 880.608 225.551 882.208 225.117 883.567C224.695 884.926 224.086 886.051 223.289 886.942C222.504 887.833 221.566 888.495 220.477 888.928C219.387 889.362 218.186 889.579 216.873 889.579C215.818 889.579 214.834 889.444 213.92 889.174C213.006 888.893 212.18 888.471 211.441 887.909C210.715 887.335 210.088 886.62 209.561 885.764C209.033 884.909 208.629 883.901 208.348 882.741C208.066 881.569 207.926 880.245 207.926 878.768V874.092C207.926 872.241 208.137 870.641 208.559 869.294C208.992 867.934 209.607 866.809 210.404 865.919C211.201 865.028 212.145 864.366 213.234 863.932C214.324 863.499 215.525 863.282 216.838 863.282C217.893 863.282 218.871 863.422 219.773 863.704C220.688 863.973 221.514 864.395 222.252 864.969C222.99 865.532 223.617 866.241 224.133 867.096C224.66 867.952 225.064 868.965 225.346 870.137C225.627 871.297 225.768 872.616 225.768 874.092ZM219.844 879.489V873.337C219.844 872.516 219.797 871.801 219.703 871.192C219.621 870.583 219.492 870.067 219.316 869.645C219.152 869.223 218.947 868.883 218.701 868.626C218.455 868.356 218.174 868.163 217.857 868.046C217.553 867.917 217.213 867.852 216.838 867.852C216.369 867.852 215.947 867.952 215.572 868.151C215.209 868.339 214.898 868.643 214.641 869.065C214.383 869.487 214.184 870.049 214.043 870.753C213.914 871.456 213.85 872.317 213.85 873.337V879.489C213.85 880.321 213.891 881.047 213.973 881.669C214.066 882.278 214.195 882.799 214.359 883.233C214.535 883.655 214.746 884.001 214.992 884.27C215.238 884.528 215.52 884.715 215.836 884.833C216.152 884.95 216.498 885.008 216.873 885.008C217.33 885.008 217.74 884.915 218.104 884.727C218.467 884.54 218.777 884.235 219.035 883.813C219.305 883.38 219.504 882.811 219.633 882.108C219.773 881.393 219.844 880.52 219.844 879.489ZM246.65 874.092V878.768C246.65 880.608 246.434 882.208 246 883.567C245.578 884.926 244.969 886.051 244.172 886.942C243.387 887.833 242.449 888.495 241.359 888.928C240.27 889.362 239.068 889.579 237.756 889.579C236.701 889.579 235.717 889.444 234.803 889.174C233.889 888.893 233.062 888.471 232.324 887.909C231.598 887.335 230.971 886.62 230.443 885.764C229.916 884.909 229.512 883.901 229.23 882.741C228.949 881.569 228.809 880.245 228.809 878.768V874.092C228.809 872.241 229.02 870.641 229.441 869.294C229.875 867.934 230.49 866.809 231.287 865.919C232.084 865.028 233.027 864.366 234.117 863.932C235.207 863.499 236.408 863.282 237.721 863.282C238.775 863.282 239.754 863.422 240.656 863.704C241.57 863.973 242.396 864.395 243.135 864.969C243.873 865.532 244.5 866.241 245.016 867.096C245.543 867.952 245.947 868.965 246.229 870.137C246.51 871.297 246.65 872.616 246.65 874.092ZM240.727 879.489V873.337C240.727 872.516 240.68 871.801 240.586 871.192C240.504 870.583 240.375 870.067 240.199 869.645C240.035 869.223 239.83 868.883 239.584 868.626C239.338 868.356 239.057 868.163 238.74 868.046C238.436 867.917 238.096 867.852 237.721 867.852C237.252 867.852 236.83 867.952 236.455 868.151C236.092 868.339 235.781 868.643 235.523 869.065C235.266 869.487 235.066 870.049 234.926 870.753C234.797 871.456 234.732 872.317 234.732 873.337V879.489C234.732 880.321 234.773 881.047 234.855 881.669C234.949 882.278 235.078 882.799 235.242 883.233C235.418 883.655 235.629 884.001 235.875 884.27C236.121 884.528 236.402 884.715 236.719 884.833C237.035 884.95 237.381 885.008 237.756 885.008C238.213 885.008 238.623 884.915 238.986 884.727C239.35 884.54 239.66 884.235 239.918 883.813C240.188 883.38 240.387 882.811 240.516 882.108C240.656 881.393 240.727 880.52 240.727 879.489Z" fill="#E1E1E6"/>
<g clip-path="url(#clip10_114_165)">
<path d="M336 876.727C336 873.669 335.45 870.74 334.445 868.032L311 866.945L287.555 868.031C286.55 870.74 286 873.669 286 876.727C286 879.785 286.55 882.715 287.555 885.423L311 886.51L334.445 885.423C335.45 882.715 336 879.785 336 876.727Z" fill="#0052B4"/>
<path d="M311 901.727C321.749 901.727 330.913 894.943 334.445 885.423H287.555C291.087 894.943 300.251 901.727 311 901.727Z" fill="#FF9811"/>
<path d="M287.555 868.032H334.445C330.913 858.512 321.749 851.727 311 851.727C300.251 851.727 291.087 858.512 287.555 868.032Z" fill="#D80027"/>
</g>
<line x1="66.0024" y1="925.227" x2="336.001" y2="926.136" stroke="#323238"/>
<g clip-path="url(#clip11_114_165)">
<path d="M91 1000.64C104.807 1000.64 116 989.443 116 975.636C116 961.829 104.807 950.636 91 950.636C77.1929 950.636 66 961.829 66 975.636C66 989.443 77.1929 1000.64 91 1000.64Z" fill="#F0F0F0"/>
<path d="M115.999 975.564H88.8985C83.518 980.945 80.2643 985.099 76.942 988.421L91.0725 989.694L113 987.52C114.913 983.986 116 979.938 116 975.636C116 975.612 115.999 975.588 115.999 975.564Z" fill="#D80027"/>
<path d="M76.9421 963.607H112.92C108.668 955.876 100.446 950.636 91 950.636C84.1148 950.636 77.8808 953.421 73.3598 957.924L76.9421 963.607Z" fill="#FFDA44"/>
<path d="M78.029 987.52C75.7816 989.768 74.913 991.651 73.2869 993.277C77.8138 997.822 84.0779 1000.64 91 1000.64C100.505 1000.64 108.771 995.331 113 987.52H78.029Z" fill="#0052B4"/>
<path d="M73.3223 957.886C63.5592 967.649 63.5592 983.478 73.3223 993.242C77.3567 989.207 81.2369 985.327 91 975.564L73.3223 957.886Z" fill="#6DA544"/>
<path d="M72.5943 975.564C72.5943 971.922 75.1541 968.879 78.5725 968.132C78.0471 968.017 77.502 967.955 76.942 967.955C72.7398 967.955 69.3333 971.362 69.3333 975.564C69.3333 979.766 72.7398 983.173 76.942 983.173C77.5019 983.173 78.047 983.11 78.5725 982.996C75.1541 982.249 72.5943 979.206 72.5943 975.564Z" fill="#F0F0F0"/>
<path d="M78.4886 969.042L78.8934 970.288H80.2029L79.1434 971.057L79.5482 972.303L78.4886 971.533L77.429 972.303L77.8338 971.057L76.7742 970.288H78.0838L78.4886 969.042Z" fill="#F0F0F0"/>
<path d="M78.4886 972.303L78.8934 973.549H80.2029L79.1434 974.318L79.5482 975.564L78.4886 974.794L77.429 975.564L77.8338 974.318L76.7742 973.549H78.0838L78.4886 972.303Z" fill="#F0F0F0"/>
<path d="M78.4886 975.564L78.8934 976.809H80.2029L79.1434 977.579L79.5482 978.825L78.4886 978.055L77.429 978.825L77.8338 977.579L76.7742 976.809H78.0838L78.4886 975.564Z" fill="#F0F0F0"/>
<path d="M78.4886 978.825L78.8934 980.07H80.2029L79.1434 980.84L79.5482 982.086L78.4886 981.316L77.429 982.086L77.8338 980.84L76.7742 980.07H78.0838L78.4886 978.825Z" fill="#F0F0F0"/>
</g>
<path d="M173.262 983.566V988.136H155.402V984.269L163.629 975.621C164.355 974.789 164.941 974.044 165.387 973.388C165.832 972.72 166.154 972.117 166.354 971.578C166.564 971.039 166.67 970.552 166.67 970.119C166.67 969.38 166.559 968.765 166.336 968.273C166.125 967.769 165.809 967.388 165.387 967.13C164.977 966.873 164.467 966.744 163.857 966.744C163.248 966.744 162.715 966.919 162.258 967.271C161.801 967.623 161.443 968.103 161.186 968.712C160.939 969.322 160.816 970.007 160.816 970.769H154.875C154.875 969.199 155.256 967.763 156.018 966.462C156.791 965.162 157.863 964.125 159.234 963.351C160.605 962.566 162.193 962.173 163.998 962.173C165.885 962.173 167.467 962.466 168.744 963.052C170.021 963.638 170.982 964.488 171.627 965.601C172.283 966.703 172.611 968.033 172.611 969.591C172.611 970.482 172.471 971.337 172.189 972.158C171.908 972.978 171.504 973.792 170.977 974.601C170.449 975.398 169.805 976.218 169.043 977.062C168.293 977.906 167.438 978.802 166.477 979.751L163.172 983.566H173.262ZM194.057 973.001V977.677C194.057 979.517 193.84 981.117 193.406 982.476C192.984 983.835 192.375 984.96 191.578 985.851C190.793 986.742 189.855 987.404 188.766 987.837C187.676 988.271 186.475 988.488 185.162 988.488C184.107 988.488 183.123 988.353 182.209 988.083C181.295 987.802 180.469 987.38 179.73 986.818C179.004 986.244 178.377 985.529 177.85 984.673C177.322 983.818 176.918 982.81 176.637 981.65C176.355 980.478 176.215 979.154 176.215 977.677V973.001C176.215 971.15 176.426 969.55 176.848 968.203C177.281 966.843 177.896 965.718 178.693 964.828C179.49 963.937 180.434 963.275 181.523 962.841C182.613 962.408 183.814 962.191 185.127 962.191C186.182 962.191 187.16 962.332 188.062 962.613C188.977 962.882 189.803 963.304 190.541 963.878C191.279 964.441 191.906 965.15 192.422 966.005C192.949 966.861 193.354 967.875 193.635 969.046C193.916 970.207 194.057 971.525 194.057 973.001ZM188.133 978.398V972.246C188.133 971.425 188.086 970.71 187.992 970.101C187.91 969.492 187.781 968.976 187.605 968.554C187.441 968.132 187.236 967.792 186.99 967.535C186.744 967.265 186.463 967.072 186.146 966.955C185.842 966.826 185.502 966.761 185.127 966.761C184.658 966.761 184.236 966.861 183.861 967.06C183.498 967.248 183.188 967.552 182.93 967.974C182.672 968.396 182.473 968.958 182.332 969.662C182.203 970.365 182.139 971.226 182.139 972.246V978.398C182.139 979.23 182.18 979.957 182.262 980.578C182.355 981.187 182.484 981.708 182.648 982.142C182.824 982.564 183.035 982.91 183.281 983.179C183.527 983.437 183.809 983.625 184.125 983.742C184.441 983.859 184.787 983.917 185.162 983.917C185.619 983.917 186.029 983.824 186.393 983.636C186.756 983.449 187.066 983.144 187.324 982.722C187.594 982.289 187.793 981.72 187.922 981.017C188.062 980.302 188.133 979.429 188.133 978.398ZM197.66 985.359C197.66 984.515 197.965 983.812 198.574 983.25C199.184 982.675 199.969 982.388 200.93 982.388C201.902 982.388 202.688 982.675 203.285 983.25C203.895 983.812 204.199 984.515 204.199 985.359C204.199 986.203 203.895 986.912 203.285 987.486C202.688 988.048 201.902 988.33 200.93 988.33C199.969 988.33 199.184 988.048 198.574 987.486C197.965 986.912 197.66 986.203 197.66 985.359ZM197.66 971.332C197.66 970.488 197.965 969.785 198.574 969.222C199.184 968.648 199.969 968.361 200.93 968.361C201.902 968.361 202.688 968.648 203.285 969.222C203.895 969.785 204.199 970.488 204.199 971.332C204.199 972.175 203.895 972.884 203.285 973.458C202.688 974.021 201.902 974.302 200.93 974.302C199.969 974.302 199.184 974.021 198.574 973.458C197.965 972.884 197.66 972.175 197.66 971.332ZM225.768 973.001V977.677C225.768 979.517 225.551 981.117 225.117 982.476C224.695 983.835 224.086 984.96 223.289 985.851C222.504 986.742 221.566 987.404 220.477 987.837C219.387 988.271 218.186 988.488 216.873 988.488C215.818 988.488 214.834 988.353 213.92 988.083C213.006 987.802 212.18 987.38 211.441 986.818C210.715 986.244 210.088 985.529 209.561 984.673C209.033 983.818 208.629 982.81 208.348 981.65C208.066 980.478 207.926 979.154 207.926 977.677V973.001C207.926 971.15 208.137 969.55 208.559 968.203C208.992 966.843 209.607 965.718 210.404 964.828C211.201 963.937 212.145 963.275 213.234 962.841C214.324 962.408 215.525 962.191 216.838 962.191C217.893 962.191 218.871 962.332 219.773 962.613C220.688 962.882 221.514 963.304 222.252 963.878C222.99 964.441 223.617 965.15 224.133 966.005C224.66 966.861 225.064 967.875 225.346 969.046C225.627 970.207 225.768 971.525 225.768 973.001ZM219.844 978.398V972.246C219.844 971.425 219.797 970.71 219.703 970.101C219.621 969.492 219.492 968.976 219.316 968.554C219.152 968.132 218.947 967.792 218.701 967.535C218.455 967.265 218.174 967.072 217.857 966.955C217.553 966.826 217.213 966.761 216.838 966.761C216.369 966.761 215.947 966.861 215.572 967.06C215.209 967.248 214.898 967.552 214.641 967.974C214.383 968.396 214.184 968.958 214.043 969.662C213.914 970.365 213.85 971.226 213.85 972.246V978.398C213.85 979.23 213.891 979.957 213.973 980.578C214.066 981.187 214.195 981.708 214.359 982.142C214.535 982.564 214.746 982.91 214.992 983.179C215.238 983.437 215.52 983.625 215.836 983.742C216.152 983.859 216.498 983.917 216.873 983.917C217.33 983.917 217.74 983.824 218.104 983.636C218.467 983.449 218.777 983.144 219.035 982.722C219.305 982.289 219.504 981.72 219.633 981.017C219.773 980.302 219.844 979.429 219.844 978.398ZM246.65 973.001V977.677C246.65 979.517 246.434 981.117 246 982.476C245.578 983.835 244.969 984.96 244.172 985.851C243.387 986.742 242.449 987.404 241.359 987.837C240.27 988.271 239.068 988.488 237.756 988.488C236.701 988.488 235.717 988.353 234.803 988.083C233.889 987.802 233.062 987.38 232.324 986.818C231.598 986.244 230.971 985.529 230.443 984.673C229.916 983.818 229.512 982.81 229.23 981.65C228.949 980.478 228.809 979.154 228.809 977.677V973.001C228.809 971.15 229.02 969.55 229.441 968.203C229.875 966.843 230.49 965.718 231.287 964.828C232.084 963.937 233.027 963.275 234.117 962.841C235.207 962.408 236.408 962.191 237.721 962.191C238.775 962.191 239.754 962.332 240.656 962.613C241.57 962.882 242.396 963.304 243.135 963.878C243.873 964.441 244.5 965.15 245.016 966.005C245.543 966.861 245.947 967.875 246.229 969.046C246.51 970.207 246.65 971.525 246.65 973.001ZM240.727 978.398V972.246C240.727 971.425 240.68 970.71 240.586 970.101C240.504 969.492 240.375 968.976 240.199 968.554C240.035 968.132 239.83 967.792 239.584 967.535C239.338 967.265 239.057 967.072 238.74 966.955C238.436 966.826 238.096 966.761 237.721 966.761C237.252 966.761 236.83 966.861 236.455 967.06C236.092 967.248 235.781 967.552 235.523 967.974C235.266 968.396 235.066 968.958 234.926 969.662C234.797 970.365 234.732 971.226 234.732 972.246V978.398C234.732 979.23 234.773 979.957 234.855 980.578C234.949 981.187 235.078 981.708 235.242 982.142C235.418 982.564 235.629 982.91 235.875 983.179C236.121 983.437 236.402 983.625 236.719 983.742C237.035 983.859 237.381 983.917 237.756 983.917C238.213 983.917 238.623 983.824 238.986 983.636C239.35 983.449 239.66 983.144 239.918 982.722C240.188 982.289 240.387 981.72 240.516 981.017C240.656 980.302 240.727 979.429 240.727 978.398Z" fill="#E1E1E6"/>
<g clip-path="url(#clip12_114_165)">
<path d="M311 1000.64C324.807 1000.64 336 989.443 336 975.636C336 961.829 324.807 950.636 311 950.636C297.193 950.636 286 961.829 286 975.636C286 989.443 297.193 1000.64 311 1000.64Z" fill="#F0F0F0"/>
<path d="M301.217 966.941H334.445C330.913 957.421 321.749 950.636 311 950.636C304.096 950.636 297.847 953.435 293.323 957.959L301.217 966.941Z" fill="black"/>
<path d="M301.217 984.332H334.445C330.913 993.852 321.749 1000.64 311 1000.64C304.096 1000.64 297.847 997.837 293.323 993.313L301.217 984.332Z" fill="#6DA544"/>
<path d="M293.322 957.958C283.559 967.722 283.559 983.551 293.322 993.314C297.357 989.279 301.237 985.399 311 975.636L293.322 957.958Z" fill="#D80027"/>
<path d="M295.922 970.201L297.294 973.07L300.393 972.354L299.005 975.216L301.497 977.192L298.395 977.891L298.403 981.071L295.922 979.081L293.441 981.071L293.45 977.891L290.348 977.192L292.839 975.216L291.452 972.354L294.55 973.07L295.922 970.201Z" fill="#F0F0F0"/>
</g>
<path d="M43 621.818H359H43ZM359 1026.64C359 1031.05 355.418 1034.64 351 1034.64H51C46.5817 1034.64 43 1031.05 43 1026.64C43 1028.85 45.6863 1030.64 49 1030.64H353C356.314 1030.64 359 1028.85 359 1026.64ZM43 1032.64V621.818V1032.64ZM359 621.818V1032.64V621.818Z" fill="#F7DD43" mask="url(#path-33-inside-2_114_165)"/>
<path d="M182.186 69.9981C180.26 69.9981 178.236 69.6331 176.65 68.754V53.2441C178.211 52.3899 180.235 52 182.186 52C184.137 52 186.113 52.365 187.673 53.2441V59.195H183.745V55.1456C183.283 54.9507 182.721 54.878 182.161 54.878C181.601 54.878 181.087 54.9507 180.6 55.1456V66.8525C181.062 67.0475 181.599 67.1201 182.161 67.1201C182.723 67.1201 183.258 67.0475 183.745 66.8525V62.805H187.673V68.7559C186.136 69.6101 184.112 69.9752 182.186 70V69.9981Z" fill="#F7DD43"/>
<path d="M195.038 69.9981C192.964 69.9981 190.965 69.5585 189.379 68.6565V53.3167C190.94 52.4395 192.941 52 195.038 52C197.134 52 199.085 52.4147 200.647 53.3167V68.6565C199.11 69.5585 197.086 69.9732 195.038 69.9981ZM196.721 55.1952C196.259 55.0003 195.697 54.9029 195.015 54.9029C194.333 54.9029 193.796 55.0003 193.331 55.1952V66.7799C193.794 66.9997 194.355 67.0971 195.015 67.0971C195.674 67.0971 196.234 66.9997 196.721 66.7799V55.1952Z" fill="#F7DD43"/>
<path d="M207.499 63.4127H206.45V69.7783H202.475V52.2198H207.499C209.89 52.2198 211.694 52.7071 213.108 53.7066V61.9259C211.719 62.9024 209.888 63.4127 207.499 63.4127ZM209.158 55.243C208.793 54.9755 208.304 54.8532 207.475 54.8532H206.401V60.7793H207.475C208.279 60.7793 208.766 60.657 209.158 60.4143V55.243Z" fill="#F7DD43"/>
<path d="M221.423 69.7783V63.4127H218.497V69.7783H214.547V53.2919C215.986 52.4376 218.01 52 219.961 52C221.912 52 223.911 52.4395 225.35 53.2919V69.7783H221.423ZM221.423 55.0481C221.009 54.8532 220.496 54.7557 219.959 54.7557C219.422 54.7557 218.91 54.8532 218.496 55.0481V60.6321H221.421V55.0481H221.423Z" fill="#F7DD43"/>
<path d="M124.213 99.9248H128.593C128.505 101.36 128.109 102.635 127.406 103.748C126.713 104.861 125.741 105.73 124.491 106.355C123.251 106.98 121.757 107.293 120.009 107.293C118.642 107.293 117.416 107.059 116.332 106.59C115.248 106.111 114.32 105.428 113.549 104.539C112.787 103.65 112.206 102.576 111.806 101.316C111.405 100.057 111.205 98.6455 111.205 97.083V95.6035C111.205 94.041 111.41 92.6299 111.82 91.3701C112.24 90.1006 112.836 89.0215 113.607 88.1328C114.389 87.2441 115.321 86.5605 116.405 86.082C117.489 85.6035 118.7 85.3643 120.038 85.3643C121.815 85.3643 123.314 85.6865 124.535 86.3311C125.766 86.9756 126.718 87.8643 127.392 88.9971C128.075 90.1299 128.485 91.4189 128.622 92.8643H124.228C124.179 92.0049 124.008 91.2773 123.715 90.6816C123.422 90.0762 122.978 89.6221 122.382 89.3193C121.796 89.0068 121.015 88.8506 120.038 88.8506C119.306 88.8506 118.666 88.9873 118.119 89.2607C117.572 89.5342 117.113 89.9492 116.742 90.5059C116.371 91.0625 116.093 91.7656 115.907 92.6152C115.731 93.4551 115.644 94.4414 115.644 95.5742V97.083C115.644 98.1865 115.727 99.1582 115.893 99.998C116.059 100.828 116.312 101.531 116.654 102.107C117.006 102.674 117.455 103.104 118.002 103.396C118.559 103.68 119.228 103.821 120.009 103.821C120.927 103.821 121.684 103.675 122.279 103.382C122.875 103.089 123.329 102.654 123.642 102.078C123.964 101.502 124.154 100.784 124.213 99.9248ZM140.15 89.3193L134.35 107H129.677L137.602 85.6719H140.575L140.15 89.3193ZM144.97 107L139.154 89.3193L138.686 85.6719H141.688L149.657 107H144.97ZM144.706 99.0605V102.503H133.441V99.0605H144.706ZM165.346 103.572V107H154.608V103.572H165.346ZM156.029 85.6719V107H151.635V85.6719H156.029ZM182.177 103.572V107H170.824V103.572H182.177ZM172.26 85.6719V107H167.865V85.6719H172.26ZM180.697 94.3584V97.6982H170.824V94.3584H180.697ZM182.162 85.6719V89.1143H170.824V85.6719H182.162ZM202.099 85.6719V107H197.704L189.135 92.7031V107H184.74V85.6719H189.135L197.719 99.9834V85.6719H202.099ZM212.47 107H207.826L207.855 103.572H212.47C213.622 103.572 214.594 103.313 215.385 102.796C216.176 102.269 216.771 101.502 217.172 100.496C217.582 99.4902 217.787 98.2744 217.787 96.8486V95.8086C217.787 94.7148 217.67 93.7529 217.436 92.9229C217.211 92.0928 216.874 91.3945 216.425 90.8281C215.976 90.2617 215.424 89.8369 214.77 89.5537C214.115 89.2607 213.363 89.1143 212.514 89.1143H207.738V85.6719H212.514C213.939 85.6719 215.243 85.916 216.425 86.4043C217.616 86.8828 218.646 87.5713 219.516 88.4697C220.385 89.3682 221.054 90.4424 221.522 91.6924C222.001 92.9326 222.24 94.3145 222.24 95.8379V96.8486C222.24 98.3623 222.001 99.7441 221.522 100.994C221.054 102.244 220.385 103.318 219.516 104.217C218.656 105.105 217.626 105.794 216.425 106.282C215.233 106.761 213.915 107 212.47 107ZM210.316 85.6719V107H205.922V85.6719H210.316ZM233.783 89.3193L227.982 107H223.31L231.234 85.6719H234.208L233.783 89.3193ZM238.603 107L232.787 89.3193L232.318 85.6719H235.321L243.29 107H238.603ZM238.339 99.0605V102.503H227.074V99.0605H238.339ZM231.308 84.4707L234.179 79.959H238.764L234.735 84.4707H231.308ZM245.268 85.6719H253.222C254.853 85.6719 256.254 85.916 257.426 86.4043C258.607 86.8926 259.516 87.6152 260.15 88.5723C260.785 89.5293 261.103 90.7061 261.103 92.1025C261.103 93.2451 260.907 94.2266 260.517 95.0469C260.136 95.8574 259.594 96.5361 258.891 97.083C258.197 97.6201 257.382 98.0498 256.444 98.3721L255.053 99.1045H248.139L248.109 95.6768H253.251C254.022 95.6768 254.662 95.54 255.17 95.2666C255.678 94.9932 256.059 94.6123 256.312 94.124C256.576 93.6357 256.708 93.0693 256.708 92.4248C256.708 91.7412 256.581 91.1504 256.327 90.6523C256.073 90.1543 255.688 89.7734 255.17 89.5098C254.652 89.2461 254.003 89.1143 253.222 89.1143H249.662V107H245.268V85.6719ZM257.191 107L252.328 97.4932L256.972 97.4639L261.894 106.795V107H257.191ZM269.159 85.6719V107H264.779V85.6719H269.159ZM290.795 95.8379V96.8486C290.795 98.4697 290.575 99.9248 290.136 101.214C289.696 102.503 289.076 103.602 288.275 104.51C287.475 105.408 286.518 106.097 285.404 106.575C284.301 107.054 283.075 107.293 281.728 107.293C280.39 107.293 279.164 107.054 278.051 106.575C276.947 106.097 275.99 105.408 275.18 104.51C274.369 103.602 273.739 102.503 273.29 101.214C272.851 99.9248 272.631 98.4697 272.631 96.8486V95.8379C272.631 94.207 272.851 92.752 273.29 91.4727C273.729 90.1836 274.35 89.085 275.15 88.1768C275.961 87.2686 276.918 86.5752 278.021 86.0967C279.135 85.6182 280.36 85.3789 281.698 85.3789C283.046 85.3789 284.271 85.6182 285.375 86.0967C286.488 86.5752 287.445 87.2686 288.246 88.1768C289.057 89.085 289.682 90.1836 290.121 91.4727C290.57 92.752 290.795 94.207 290.795 95.8379ZM286.356 96.8486V95.8086C286.356 94.6758 286.254 93.6797 286.049 92.8203C285.844 91.9609 285.541 91.2383 285.141 90.6523C284.74 90.0664 284.252 89.627 283.676 89.334C283.1 89.0312 282.44 88.8799 281.698 88.8799C280.956 88.8799 280.297 89.0312 279.721 89.334C279.154 89.627 278.671 90.0664 278.271 90.6523C277.88 91.2383 277.582 91.9609 277.377 92.8203C277.172 93.6797 277.069 94.6758 277.069 95.8086V96.8486C277.069 97.9717 277.172 98.9678 277.377 99.8369C277.582 100.696 277.885 101.424 278.285 102.02C278.686 102.605 279.174 103.05 279.75 103.353C280.326 103.655 280.985 103.807 281.728 103.807C282.47 103.807 283.129 103.655 283.705 103.353C284.281 103.05 284.765 102.605 285.155 102.02C285.546 101.424 285.844 100.696 286.049 99.8369C286.254 98.9678 286.356 97.9717 286.356 96.8486Z" fill="url(#paint0_linear_114_165)"/>
</g>
<defs>
<filter id="filter0_f_114_165" x="-870.19" y="-716.19" width="2141.38" height="1500.38" filterUnits="userSpaceOnUse" color-interpolation-filters="sRGB">
<feFlood flood-opacity="0" result="BackgroundImageFix"/>
<feBlend mode="normal" in="SourceGraphic" in2="BackgroundImageFix" result="shape"/>
<feGaussianBlur stdDeviation="200.095" result="effect1_foregroundBlur_114_165"/>
</filter>
<linearGradient id="paint0_linear_114_165" x1="201" y1="78" x2="201" y2="116" gradientUnits="userSpaceOnUse">
<stop stop-color="white"/>
<stop offset="1" stop-color="#D9D9D9" stop-opacity="0.8"/>
</linearGradient>
<clipPath id="clip0_114_165">
<rect width="400" height="1145" fill="white"/>
</clipPath>
<clipPath id="clip1_114_165">
<rect width="50" height="50" fill="white" transform="translate(66 310)"/>
</clipPath>
<clipPath id="clip2_114_165">
<rect width="50" height="50" fill="white" transform="translate(286 310)"/>
</clipPath>
<clipPath id="clip3_114_165">
<rect width="50" height="50" fill="white" transform="translate(66 408.909)"/>
</clipPath>
<clipPath id="clip4_114_165">
<rect width="50" height="50" fill="white" transform="translate(286 408.909)"/>
</clipPath>
<clipPath id="clip5_114_165">
<rect width="50" height="50" fill="white" transform="translate(66 507.818)"/>
</clipPath>
<clipPath id="clip6_114_165">
<rect width="50" height="50" fill="white" transform="translate(286 507.818)"/>
</clipPath>
<clipPath id="clip7_114_165">
<rect width="50" height="50" fill="white" transform="translate(66 752.818)"/>
</clipPath>
<clipPath id="clip8_114_165">
<rect width="50" height="50" fill="white" transform="translate(286 752.818)"/>
</clipPath>
<clipPath id="clip9_114_165">
<rect width="50" height="50" fill="white" transform="translate(66 851.727)"/>
</clipPath>
<clipPath id="clip10_114_165">
<rect width="50" height="50" fill="white" transform="translate(286 851.727)"/>
</clipPath>
<clipPath id="clip11_114_165">
<rect width="50" height="50" fill="white" transform="translate(66 950.636)"/>
</clipPath>
<clipPath id="clip12_114_165">
<rect width="50" height="50" fill="white" transform="translate(286 950.636)"/>
</clipPath>
</defs>
</svg>
